<?xml version="1.0" standalone="no"?>
<!DOCTYPE svg PUBLIC "-//W3C//DTD SVG 1.0//EN" "http://www.w3.org/TR/2001/REC-SVG-20010904/DTD/svg10.dtd">
<svg xmlns="http://www.w3.org/2000/svg" xmlns:xlink="http://www.w3.org/1999/xlink" id="body_1" width="400" height="400">

<g transform="matrix(1 0 0 1 0 0)">
	<g>
        <path d="M191.4 45.634C 190.08 45.815 185.849 46.229 181.997 46.555C 178.145 46.88 174.545 47.313 173.997 47.517C 173.449 47.721 171.838 48.016 170.417 48.173C 168.997 48.33 167.268 48.695 166.576 48.984C 165.885 49.273 164.527 49.631 163.559 49.78C 162.592 49.928 160.27 50.497 158.4 51.044C 156.53 51.59 153.74 52.403 152.2 52.85C 150.66 53.296 148.809 53.918 148.086 54.231C 147.364 54.544 146.464 54.802 146.086 54.804C 145.709 54.806 144.5 55.25 143.4 55.791C 142.3 56.332 141.198 56.781 140.952 56.787C 139.592 56.825 121.713 65.585 119.2 67.444C 118.87 67.688 117.567 68.446 116.304 69.128C 115.041 69.81 113.241 70.928 112.304 71.611C 107.91 74.815 105.585 76.4 105.281 76.4C 105.099 76.4 104.432 76.94 103.8 77.6C 103.168 78.26 102.48 78.8 102.272 78.8C 101.7 78.8 90.957 87.85 89.381 89.66C 88.931 90.177 88.121 90.981 87.581 91.446C 86.209 92.628 81.32 98.025 78.383 101.6C 77.027 103.25 75.689 104.783 75.41 105.007C 75.131 105.23 74.474 106.04 73.951 106.807C 73.428 107.573 72.491 108.767 71.87 109.46C 68.986 112.674 62.434 122.818 59.376 128.8C 58.533 130.45 57.638 132.07 57.387 132.4C 57.137 132.73 56.694 133.63 56.404 134.4C 56.113 135.17 55.022 137.6 53.978 139.8C 51.739 144.52 50.243 148.061 49.67 150C 49.442 150.77 48.808 152.66 48.26 154.2C 47.712 155.74 47.066 157.81 46.824 158.8C 46.583 159.79 46.032 161.77 45.601 163.2C 44.306 167.494 43.201 172.526 43.182 174.213C 43.173 175.086 42.905 176.52 42.587 177.4C 42.268 178.28 41.819 181.07 41.588 183.6C 41.357 186.13 40.978 189.28 40.746 190.6C 40.296 193.162 40.163 213.693 40.592 214.387C 41.708 216.192 46.453 212.015 48.408 207.506C 52.119 198.947 69.858 181.254 77.261 178.729C 77.997 178.478 79.029 177.941 79.554 177.536C 80.079 177.131 80.671 176.8 80.871 176.8C 81.071 176.8 82.209 176.08 83.4 175.2C 84.591 174.32 85.739 173.6 85.951 173.6C 86.162 173.6 87.297 172.722 88.471 171.648C 89.824 170.411 92.053 169.021 94.555 167.851C 96.822 166.792 99.717 165.025 101.35 163.703C 108.12 158.224 111.43 157.196 113.762 159.848C 116.35 162.791 114.183 169.366 109.262 173.505C 105.908 176.325 103.037 178.588 100.8 180.175C 99.59 181.033 98.42 181.934 98.2 182.176C 97.98 182.419 96.81 183.327 95.6 184.193C 85.652 191.314 87.495 196.114 100.2 196.174C 106.066 196.201 107.437 195.967 116.6 193.37C 118.58 192.809 121.19 192.113 122.4 191.825C 124.818 191.248 126.719 190.665 133.6 188.393C 136.13 187.558 139.19 186.652 140.4 186.38C 141.61 186.108 142.955 185.642 143.389 185.343C 143.823 185.044 144.633 184.801 145.189 184.802C 145.745 184.803 147.1 184.511 148.2 184.153C 149.3 183.795 151.19 183.177 152.4 182.779C 153.61 182.381 155.5 181.941 156.6 181.8C 157.7 181.659 160.256 181.177 162.28 180.727C 169.819 179.054 174.8 180.502 174.8 184.367C 174.8 186.379 168.462 191.546 165.911 191.614C 165.63 191.621 164.68 191.975 163.8 192.4C 162.92 192.825 161.93 193.185 161.6 193.2C 161.27 193.215 160.28 193.575 159.4 194C 158.52 194.425 157.624 194.779 157.41 194.786C 156.934 194.803 151.859 196.661 150.2 197.426C 148.181 198.357 139.264 201.6 138.716 201.602C 138.432 201.604 137.66 201.892 137 202.243C 136.34 202.594 134.09 203.479 132 204.21C 122.024 207.698 120.657 208.521 121.441 210.563C 122.029 212.094 129.304 212.141 135.6 210.653C 138.196 210.039 140.67 209.663 149.036 208.612C 151.476 208.306 154.536 207.791 155.836 207.467C 157.136 207.144 159.82 206.759 161.8 206.612C 163.78 206.465 166.84 206.078 168.6 205.752C 180.637 203.523 187.2 205.195 187.2 210.491C 187.2 213.642 183.424 215.759 176 216.771C 174.35 216.995 172.016 217.454 170.813 217.79C 169.61 218.125 167.81 218.403 166.813 218.407C 165.816 218.411 163.767 218.675 162.26 218.994C 160.754 219.314 157.607 219.781 155.267 220.033C 152.928 220.285 150.578 220.656 150.046 220.858C 149.514 221.061 147.171 221.413 144.84 221.641C 142.508 221.869 139.61 222.3 138.4 222.598C 137.19 222.897 134.76 223.267 133 223.42C 126.65 223.976 124.004 225.804 125.89 228.335C 127.125 229.993 128.533 230.099 152.8 230.365C 173.13 230.589 175.585 230.685 177.242 231.325C 183.281 233.656 182.732 239.598 176.317 241.344C 169.776 243.124 168.938 243.202 156.2 243.213C 137.617 243.229 122.538 243.817 121.388 244.571C 119.66 245.703 119.596 249.142 121.286 250.046C 122.223 250.548 127.815 251.988 128.854 251.995C 129.214 251.998 130.024 252.269 130.654 252.598C 131.284 252.926 132.256 253.196 132.813 253.198C 133.37 253.199 134.81 253.474 136.013 253.809C 138.15 254.404 143.176 255.48 149.2 256.633C 150.85 256.949 152.767 257.475 153.46 257.803C 154.154 258.132 155.063 258.4 155.482 258.4C 156.514 258.4 159.656 260.436 160.728 261.8C 164.155 266.157 155.719 270.073 148.2 267.616C 146.88 267.185 144.108 266.449 142.039 265.981C 138.498 265.18 136.329 264.909 126.6 264.052C 119.928 263.464 60.905 265.09 57.4 265.958C 56.52 266.176 55.305 266.458 54.7 266.585C 53.442 266.848 53.096 269.084 54.174 269.979C 54.49 270.241 54.87 271.007 55.018 271.682C 55.166 272.357 55.802 273.74 56.43 274.755C 57.058 275.77 57.853 277.219 58.197 277.976C 58.907 279.537 63.888 288.427 64.8 289.761C 65.13 290.243 65.823 291.304 66.34 292.119C 66.856 292.934 67.429 293.6 67.613 293.6C 67.796 293.6 68.057 293.95 68.193 294.377C 68.397 295.02 70.815 298.427 72.369 300.262C 72.585 300.516 73.325 301.641 74.015 302.762C 74.704 303.883 75.407 304.8 75.575 304.8C 75.744 304.8 76.712 305.857 77.727 307.148C 79.538 309.453 90.848 321.036 93.6 323.405C 94.37 324.067 96.17 325.596 97.6 326.802C 99.03 328.008 100.29 329.093 100.4 329.212C 100.51 329.332 102.4 330.726 104.6 332.311C 106.8 333.895 109.5 335.841 110.6 336.633C 111.7 337.426 113.574 338.643 114.764 339.337C 115.954 340.032 117.574 340.995 118.364 341.479C 119.154 341.962 121.24 343.107 123 344.024C 128.22 346.743 129.346 347.374 129.916 347.9C 130.213 348.175 130.628 348.4 130.837 348.4C 131.045 348.4 132.739 349.12 134.6 350C 136.461 350.88 138.212 351.601 138.492 351.602C 138.771 351.604 139.54 351.893 140.2 352.246C 140.86 352.598 143.2 353.48 145.4 354.205C 147.6 354.93 149.94 355.809 150.6 356.159C 151.26 356.509 152.092 356.796 152.45 356.798C 152.807 356.799 153.887 357.094 154.85 357.453C 155.812 357.812 157.41 358.242 158.4 358.41C 159.39 358.577 162.72 359.343 165.8 360.111C 168.88 360.88 172.75 361.703 174.4 361.94C 176.05 362.177 178.3 362.573 179.4 362.82C 182.968 363.622 222.359 363.557 223.6 362.747C 224.252 362.322 225.921 362.009 228.4 361.847C 230.564 361.706 234.267 361.066 237 360.36C 239.64 359.678 243.06 358.869 244.6 358.562C 246.14 358.255 248.03 357.735 248.8 357.408C 249.57 357.08 250.92 356.64 251.8 356.431C 252.68 356.221 254.66 355.57 256.2 354.983C 257.74 354.397 259.81 353.68 260.8 353.391C 261.79 353.102 263.668 352.311 264.973 351.633C 266.278 350.955 267.536 350.4 267.767 350.4C 268.462 350.4 276.368 346.558 276.8 346.01C 276.91 345.871 278.35 345.084 280 344.261C 285.134 341.703 290.147 338.736 294.292 335.804C 301.047 331.026 303.277 329.383 303.533 329C 303.68 328.78 304.7 327.88 305.8 327C 309.484 324.052 316.184 317.904 317.741 316.042C 318.588 315.029 320.213 313.3 321.352 312.2C 322.49 311.1 324.801 308.58 326.486 306.6C 329.416 303.157 330.27 302.026 334.04 296.6C 334.957 295.28 336.287 293.48 336.995 292.6C 337.703 291.72 338.581 290.46 338.946 289.8C 339.311 289.14 339.782 288.33 339.992 288C 340.201 287.67 341.39 285.6 342.633 283.4C 343.877 281.2 345.233 278.922 345.647 278.338C 346.061 277.754 346.4 277.042 346.4 276.756C 346.4 276.3 349.44 269.728 351.034 266.738C 351.345 266.154 351.6 265.369 351.6 264.993C 351.6 264.617 351.956 263.654 352.39 262.854C 352.825 262.055 353.465 260.59 353.813 259.6C 355.413 255.041 356.787 250.529 356.795 249.8C 356.801 249.36 357.085 248.463 357.427 247.807C 357.769 247.151 358.297 245.351 358.599 243.807C 358.902 242.263 359.429 240.1 359.771 239C 361.764 232.576 359.263 231.796 348.4 235.452C 347.41 235.785 345.52 236.289 344.2 236.571C 342.88 236.854 341.26 237.38 340.6 237.74C 339.94 238.1 339.047 238.396 338.616 238.398C 337.712 238.4 331.912 240.268 330.338 241.063C 329.754 241.359 328.854 241.601 328.338 241.602C 327.822 241.604 326.88 241.876 326.245 242.207C 325.61 242.538 324.08 243.059 322.845 243.363C 320.548 243.93 319.164 244.388 316 245.626C 315.01 246.014 313.48 246.463 312.6 246.624C 311.72 246.785 310.373 247.251 309.606 247.659C 308.839 248.066 307.899 248.4 307.517 248.4C 307.135 248.4 305.805 248.85 304.562 249.4C 303.318 249.95 301.997 250.4 301.626 250.4C 301.001 250.4 298.296 251.4 294.713 252.955C 293.895 253.31 292.849 253.6 292.388 253.6C 291.928 253.6 290.257 254.213 288.675 254.962C 287.094 255.712 283.82 257.26 281.4 258.402C 278.98 259.544 276.91 260.614 276.8 260.778C 276.69 260.942 276.114 261.329 275.52 261.638C 274.926 261.947 272.406 263.58 269.92 265.267C 267.433 266.955 264.902 268.459 264.296 268.612C 263.689 268.764 263.094 269.049 262.973 269.244C 262.053 270.732 256.106 268.879 255.35 266.869C 254.44 264.454 257.412 260.316 261.404 258.44C 262.306 258.016 263.293 257.37 263.596 257.005C 263.899 256.64 264.823 255.996 265.65 255.575C 267.009 254.881 269.573 253.291 270.6 252.505C 270.82 252.337 272.62 251.215 274.6 250.013C 276.58 248.811 278.38 247.683 278.6 247.507C 279.447 246.828 281.877 245.191 283.6 244.138C 284.59 243.533 285.49 242.931 285.6 242.8C 285.71 242.669 286.378 242.158 287.085 241.664C 290.866 239.024 288.196 234.435 283.567 235.617C 282.595 235.866 280.81 236.303 279.6 236.59C 278.39 236.876 276.86 237.4 276.2 237.753C 275.54 238.106 274.55 238.397 274 238.4C 273.45 238.403 272.55 238.636 272 238.919C 270.559 239.66 266.131 241.232 263.8 241.831C 260.015 242.802 255.893 244.279 252.594 245.847C 251.491 246.371 250.277 246.8 249.896 246.8C 249.515 246.8 248.077 247.163 246.702 247.607C 233.773 251.781 231.458 252.032 228.656 249.566C 224.04 245.503 227.678 241.057 238.444 237.605C 240.73 236.872 242.78 236.15 243 236.001C 243.22 235.851 245.11 235.14 247.2 234.42C 252.214 232.692 255.133 231.629 256.6 230.999C 259.202 229.88 262.295 228.804 264.2 228.356C 265.3 228.097 266.38 227.761 266.6 227.61C 266.82 227.459 268.17 226.925 269.6 226.423C 275.591 224.323 277.336 222.675 276.537 219.873C 276.088 218.3 273.345 217.948 269.4 218.958C 265.354 219.994 255.64 221.955 248.4 223.199C 242.121 224.277 237.636 225.178 235.4 225.81C 234.3 226.121 231.912 226.541 230.094 226.744C 228.275 226.947 226.54 227.318 226.237 227.569C 224.911 228.67 216.65 228.962 214.767 227.975C 213.57 227.348 212.258 224.282 212.541 222.772C 213.009 220.279 217.1 217.332 221.4 216.389C 222.28 216.196 224.53 215.691 226.4 215.266C 228.27 214.841 230.88 214.284 232.2 214.028C 233.52 213.772 236.13 213.215 238 212.791C 239.87 212.366 242.21 211.907 243.2 211.771C 244.19 211.635 246.26 211.195 247.8 210.792C 249.34 210.389 251.59 209.938 252.8 209.788C 254.01 209.639 255.983 209.266 257.184 208.959C 258.385 208.651 260.059 208.4 260.904 208.4C 261.749 208.4 262.976 208.123 263.631 207.784C 264.286 207.445 266.032 207.056 267.511 206.919C 270.878 206.608 275.405 204.712 275.042 203.765C 274.909 203.418 274.8 202.976 274.8 202.781C 274.8 201.809 272.004 201.615 252.165 201.212C 221.661 200.593 217.971 200.179 215.839 197.134C 213.019 193.108 219.141 189.332 230 188.401C 232.97 188.147 236.143 187.777 237.051 187.579C 237.959 187.381 243.719 187.032 249.851 186.803C 255.983 186.574 262.98 186.214 265.4 186.003C 267.82 185.792 272.994 185.431 276.898 185.2C 280.802 184.97 284.492 184.592 285.098 184.361C 285.704 184.129 287.182 183.757 288.383 183.534C 290.436 183.153 294.449 181.266 296.886 179.536C 298.199 178.604 298.918 176.363 298.368 174.917C 297.589 172.868 295.617 171.907 286.2 168.992C 284.22 168.378 282.06 167.648 281.4 167.369C 280.74 167.09 279.66 166.74 279 166.591C 270.649 164.709 263.497 158.595 263.956 153.731C 264.053 152.697 266.137 150.794 267.602 150.399C 269.513 149.885 273.674 150.859 276.8 152.553C 277.789 153.089 278.98 153.291 285.6 154.043C 287.47 154.255 290.62 154.956 292.6 155.599C 298.932 157.658 300.122 157.942 304.2 158.373C 306.4 158.605 309.341 159.156 310.736 159.598C 312.13 160.039 313.633 160.4 314.075 160.4C 314.89 160.4 316.182 160.905 319.806 162.64C 320.909 163.168 321.989 163.601 322.206 163.603C 324.207 163.616 337.438 171.816 342.857 176.401C 346.277 179.294 346.193 179.243 351.2 181.451C 355.062 183.154 360.409 183.661 361.208 182.4C 361.768 181.515 361.681 179.194 361.004 176.964C 360.677 175.884 360.407 174.364 360.404 173.587C 360.402 172.81 360.13 171.19 359.799 169.987C 359.469 168.784 358.923 166.72 358.586 165.4C 358.25 164.08 357.812 162.706 357.613 162.347C 357.415 161.988 357.06 160.638 356.825 159.347C 356.46 157.346 355.451 154.144 354.195 151C 352.563 146.919 351.6 144.313 351.6 143.981C 351.6 143.302 346.15 131.874 344.741 129.6C 344.264 128.83 343.156 126.852 342.278 125.204C 341.401 123.556 339.944 121.238 339.042 120.052C 338.139 118.867 337.22 117.621 337 117.285C 328.96 104.984 326.791 102.377 314.8 90.604C 307.98 83.909 303.982 80.509 297.4 75.809C 295.42 74.395 293.366 72.87 292.837 72.419C 292.307 71.969 291.705 71.6 291.498 71.6C 291.292 71.6 290.626 71.246 290.019 70.813C 288.589 69.796 279.626 64.684 275.2 62.363C 273.438 61.439 266.861 58.468 266 58.208C 265.45 58.042 264.73 57.677 264.4 57.397C 264.07 57.118 263.233 56.769 262.539 56.621C 261.846 56.474 260.592 56.004 259.754 55.577C 258.916 55.15 257.99 54.8 257.696 54.8C 257.401 54.8 256.629 54.525 255.98 54.19C 255.331 53.854 253.864 53.402 252.72 53.185C 251.577 52.968 250.513 52.582 250.356 52.328C 250.198 52.074 249.199 51.735 248.135 51.575C 247.071 51.415 244.04 50.702 241.4 49.99C 238.76 49.279 235.417 48.554 233.972 48.38C 232.526 48.206 230.366 47.792 229.172 47.459C 227.977 47.126 224.57 46.656 221.6 46.416C 218.63 46.175 215.21 45.816 214 45.618C 211.28 45.173 194.674 45.185 191.4 45.634" stroke="none" fill="#7CB4D9" fill-rule="evenodd" />
        <path d="M0 200L0 400L200 400L400 400L400 200L400 0L200 0L0 0L0 200zM214 45.618C 215.21 45.816 218.63 46.175 221.6 46.416C 224.57 46.656 227.977 47.126 229.172 47.459C 230.366 47.792 232.526 48.206 233.972 48.38C 235.417 48.554 238.76 49.279 241.4 49.99C 244.04 50.702 247.071 51.415 248.135 51.575C 249.199 51.735 250.198 52.074 250.356 52.328C 250.513 52.582 251.577 52.968 252.72 53.185C 253.864 53.402 255.331 53.854 255.98 54.19C 256.629 54.525 257.401 54.8 257.696 54.8C 257.99 54.8 258.916 55.15 259.754 55.577C 260.592 56.004 261.846 56.474 262.539 56.621C 263.233 56.769 264.07 57.118 264.4 57.397C 264.73 57.677 265.45 58.042 266 58.208C 266.861 58.468 273.438 61.439 275.2 62.363C 279.626 64.684 288.589 69.796 290.019 70.813C 290.626 71.246 291.292 71.6 291.498 71.6C 291.705 71.6 292.307 71.969 292.837 72.419C 293.366 72.87 295.42 74.395 297.4 75.809C 303.982 80.509 307.98 83.909 314.8 90.604C 326.791 102.377 328.96 104.984 337 117.285C 337.22 117.621 338.139 118.867 339.042 120.052C 339.944 121.238 341.401 123.556 342.278 125.204C 343.156 126.852 344.264 128.83 344.741 129.6C 346.15 131.874 351.6 143.302 351.6 143.981C 351.6 144.313 352.563 146.919 354.195 151C 355.451 154.144 356.46 157.346 356.825 159.347C 357.06 160.638 357.415 161.988 357.613 162.347C 357.812 162.706 358.25 164.08 358.586 165.4C 358.923 166.72 359.469 168.784 359.799 169.987C 360.13 171.19 360.402 172.81 360.404 173.587C 360.407 174.364 360.677 175.884 361.004 176.964C 363.247 184.357 358.493 185.217 346.908 179.513C 346.418 179.271 344.595 177.871 342.857 176.401C 337.438 171.816 324.207 163.616 322.206 163.603C 321.989 163.601 320.909 163.168 319.806 162.64C 316.182 160.905 314.89 160.4 314.075 160.4C 313.633 160.4 312.13 160.039 310.736 159.598C 309.341 159.156 306.4 158.605 304.2 158.373C 300.122 157.942 298.932 157.658 292.6 155.599C 290.62 154.956 287.47 154.255 285.6 154.043C 278.98 153.291 277.789 153.089 276.8 152.553C 273.674 150.859 269.513 149.885 267.602 150.399C 266.137 150.794 264.053 152.697 263.956 153.731C 263.497 158.595 270.649 164.709 279 166.591C 279.66 166.74 280.74 167.09 281.4 167.369C 282.06 167.648 284.22 168.378 286.2 168.992C 295.617 171.907 297.589 172.868 298.368 174.917C 298.918 176.363 298.199 178.604 296.886 179.536C 294.449 181.266 290.436 183.153 288.383 183.534C 287.182 183.757 285.704 184.129 285.098 184.361C 284.492 184.592 280.802 184.97 276.898 185.2C 272.994 185.431 267.82 185.792 265.4 186.003C 262.98 186.214 255.983 186.574 249.851 186.803C 243.719 187.032 237.959 187.381 237.051 187.579C 236.143 187.777 232.97 188.147 230 188.401C 219.141 189.332 213.019 193.108 215.839 197.134C 217.971 200.179 221.661 200.593 252.165 201.212C 272.004 201.615 274.8 201.809 274.8 202.781C 274.8 202.976 274.909 203.418 275.042 203.765C 275.405 204.712 270.878 206.608 267.511 206.919C 266.032 207.056 264.286 207.445 263.631 207.784C 262.976 208.123 261.749 208.4 260.904 208.4C 260.059 208.4 258.385 208.651 257.184 208.959C 255.983 209.266 254.01 209.639 252.8 209.788C 251.59 209.938 249.34 210.389 247.8 210.792C 246.26 211.195 244.19 211.635 243.2 211.771C 242.21 211.907 239.87 212.366 238 212.791C 236.13 213.215 233.52 213.772 232.2 214.028C 230.88 214.284 228.27 214.841 226.4 215.266C 224.53 215.691 222.28 216.196 221.4 216.389C 217.1 217.332 213.009 220.279 212.541 222.772C 212.258 224.282 213.57 227.348 214.767 227.975C 216.65 228.962 224.911 228.67 226.237 227.569C 226.54 227.318 228.275 226.947 230.094 226.744C 231.912 226.541 234.3 226.121 235.4 225.81C 237.636 225.178 242.121 224.277 248.4 223.199C 255.64 221.955 265.354 219.994 269.4 218.958C 273.345 217.948 276.088 218.3 276.537 219.873C 277.336 222.675 275.591 224.323 269.6 226.423C 268.17 226.925 266.82 227.459 266.6 227.61C 266.38 227.761 265.3 228.097 264.2 228.356C 262.295 228.804 259.202 229.88 256.6 230.999C 255.133 231.629 252.214 232.692 247.2 234.42C 245.11 235.14 243.22 235.851 243 236.001C 242.78 236.15 240.73 236.872 238.444 237.605C 227.678 241.057 224.04 245.503 228.656 249.566C 231.458 252.032 233.773 251.781 246.702 247.607C 248.077 247.163 249.515 246.8 249.896 246.8C 250.277 246.8 251.491 246.371 252.594 245.847C 255.893 244.279 260.015 242.802 263.8 241.831C 266.131 241.232 270.559 239.66 272 238.919C 272.55 238.636 273.45 238.403 274 238.4C 274.55 238.397 275.54 238.106 276.2 237.753C 276.86 237.4 278.39 236.876 279.6 236.59C 280.81 236.303 282.595 235.866 283.567 235.617C 288.196 234.435 290.866 239.024 287.085 241.664C 286.378 242.158 285.71 242.669 285.6 242.8C 285.49 242.931 284.59 243.533 283.6 244.138C 281.877 245.191 279.447 246.828 278.6 247.507C 278.38 247.683 276.58 248.811 274.6 250.013C 272.62 251.215 270.82 252.337 270.6 252.505C 269.573 253.291 267.009 254.881 265.65 255.575C 264.823 255.996 263.899 256.64 263.596 257.005C 263.293 257.37 262.306 258.016 261.404 258.44C 257.412 260.316 254.44 264.454 255.35 266.869C 256.106 268.879 262.053 270.732 262.973 269.244C 263.094 269.049 263.689 268.764 264.296 268.612C 264.902 268.459 267.433 266.955 269.92 265.267C 272.406 263.58 274.926 261.947 275.52 261.638C 276.114 261.329 276.69 260.942 276.8 260.778C 276.91 260.614 278.98 259.544 281.4 258.402C 283.82 257.26 287.094 255.712 288.675 254.962C 290.257 254.213 291.928 253.6 292.388 253.6C 292.849 253.6 293.895 253.31 294.713 252.955C 298.296 251.4 301.001 250.4 301.626 250.4C 301.997 250.4 303.318 249.95 304.562 249.4C 305.805 248.85 307.135 248.4 307.517 248.4C 307.899 248.4 308.839 248.066 309.606 247.659C 310.373 247.251 311.72 246.785 312.6 246.624C 313.48 246.463 315.01 246.014 316 245.626C 319.164 244.388 320.548 243.93 322.845 243.363C 324.08 243.059 325.61 242.538 326.245 242.207C 326.88 241.876 327.822 241.604 328.338 241.602C 328.854 241.601 329.754 241.359 330.338 241.063C 331.912 240.268 337.712 238.4 338.616 238.398C 339.047 238.396 339.94 238.1 340.6 237.74C 341.26 237.38 342.88 236.854 344.2 236.571C 345.52 236.289 347.41 235.785 348.4 235.452C 359.263 231.796 361.764 232.576 359.771 239C 359.429 240.1 358.902 242.263 358.599 243.807C 358.297 245.351 357.769 247.151 357.427 247.807C 357.085 248.463 356.801 249.36 356.795 249.8C 356.787 250.529 355.413 255.041 353.813 259.6C 353.465 260.59 352.825 262.055 352.39 262.854C 351.956 263.654 351.6 264.617 351.6 264.993C 351.6 265.369 351.345 266.154 351.034 266.738C 349.44 269.728 346.4 276.3 346.4 276.756C 346.4 277.042 346.061 277.754 345.647 278.338C 345.233 278.922 343.877 281.2 342.633 283.4C 341.39 285.6 340.201 287.67 339.992 288C 339.782 288.33 339.311 289.14 338.946 289.8C 338.581 290.46 337.703 291.72 336.995 292.6C 336.287 293.48 334.957 295.28 334.04 296.6C 330.27 302.026 329.416 303.157 326.486 306.6C 324.801 308.58 322.49 311.1 321.352 312.2C 320.213 313.3 318.588 315.029 317.741 316.042C 316.184 317.904 309.484 324.052 305.8 327C 304.7 327.88 303.68 328.78 303.533 329C 303.277 329.383 301.047 331.026 294.292 335.804C 290.147 338.736 285.134 341.703 280 344.261C 278.35 345.084 276.91 345.871 276.8 346.01C 276.368 346.558 268.462 350.4 267.767 350.4C 267.536 350.4 266.278 350.955 264.973 351.633C 263.668 352.311 261.79 353.102 260.8 353.391C 259.81 353.68 257.74 354.397 256.2 354.983C 254.66 355.57 252.68 356.221 251.8 356.431C 250.92 356.64 249.57 357.08 248.8 357.408C 248.03 357.735 246.14 358.255 244.6 358.562C 243.06 358.869 239.64 359.678 237 360.36C 234.267 361.066 230.564 361.706 228.4 361.847C 225.921 362.009 224.252 362.322 223.6 362.747C 222.359 363.557 182.968 363.622 179.4 362.82C 178.3 362.573 176.05 362.177 174.4 361.94C 172.75 361.703 168.88 360.88 165.8 360.111C 162.72 359.343 159.39 358.577 158.4 358.41C 157.41 358.242 155.812 357.812 154.85 357.453C 153.887 357.094 152.807 356.799 152.45 356.798C 152.092 356.796 151.26 356.509 150.6 356.159C 149.94 355.809 147.6 354.93 145.4 354.205C 143.2 353.48 140.86 352.598 140.2 352.246C 139.54 351.893 138.771 351.604 138.492 351.602C 138.212 351.601 136.461 350.88 134.6 350C 132.739 349.12 131.045 348.4 130.837 348.4C 130.628 348.4 130.213 348.175 129.916 347.9C 129.346 347.374 128.22 346.743 123 344.024C 121.24 343.107 119.154 341.962 118.364 341.479C 117.574 340.995 115.954 340.032 114.764 339.337C 113.574 338.643 111.7 337.426 110.6 336.633C 109.5 335.841 106.8 333.895 104.6 332.311C 102.4 330.726 100.51 329.332 100.4 329.212C 100.29 329.093 99.03 328.008 97.6 326.802C 96.17 325.596 94.37 324.067 93.6 323.405C 90.848 321.036 79.538 309.453 77.727 307.148C 76.712 305.857 75.744 304.8 75.575 304.8C 75.407 304.8 74.704 303.883 74.015 302.762C 73.325 301.641 72.585 300.516 72.369 300.262C 70.815 298.427 68.397 295.02 68.193 294.377C 68.057 293.95 67.796 293.6 67.613 293.6C 67.429 293.6 66.856 292.934 66.34 292.119C 65.823 291.304 65.13 290.243 64.8 289.761C 63.888 288.427 58.907 279.537 58.197 277.976C 57.853 277.219 57.058 275.77 56.43 274.755C 55.802 273.74 55.166 272.357 55.018 271.682C 54.87 271.007 54.49 270.241 54.174 269.979C 53.096 269.084 53.442 266.848 54.7 266.585C 55.305 266.458 56.52 266.176 57.4 265.958C 60.905 265.09 119.928 263.464 126.6 264.052C 136.329 264.909 138.498 265.18 142.039 265.981C 144.108 266.449 146.88 267.185 148.2 267.616C 155.719 270.073 164.155 266.157 160.728 261.8C 159.656 260.436 156.514 258.4 155.482 258.4C 155.063 258.4 154.154 258.132 153.46 257.803C 152.767 257.475 150.85 256.949 149.2 256.633C 143.176 255.48 138.15 254.404 136.013 253.809C 134.81 253.474 133.37 253.199 132.813 253.198C 132.256 253.196 131.284 252.926 130.654 252.598C 130.024 252.269 129.214 251.998 128.854 251.995C 127.815 251.988 122.223 250.548 121.286 250.046C 119.596 249.142 119.66 245.703 121.388 244.571C 122.538 243.817 137.617 243.229 156.2 243.213C 168.938 243.202 169.776 243.124 176.317 241.344C 182.732 239.598 183.281 233.656 177.242 231.325C 175.585 230.685 173.13 230.589 152.8 230.365C 128.533 230.099 127.125 229.993 125.89 228.335C 124.004 225.804 126.65 223.976 133 223.42C 134.76 223.267 137.19 222.897 138.4 222.598C 139.61 222.3 142.508 221.869 144.84 221.641C 147.171 221.413 149.514 221.061 150.046 220.858C 150.578 220.656 152.928 220.285 155.267 220.033C 157.607 219.781 160.754 219.314 162.26 218.994C 163.767 218.675 165.816 218.411 166.813 218.407C 167.81 218.403 169.61 218.125 170.813 217.79C 172.016 217.454 174.35 216.995 176 216.771C 183.424 215.759 187.2 213.642 187.2 210.491C 187.2 205.195 180.637 203.523 168.6 205.752C 166.84 206.078 163.78 206.465 161.8 206.612C 159.82 206.759 157.136 207.144 155.836 207.467C 154.536 207.791 151.476 208.306 149.036 208.612C 140.67 209.663 138.196 210.039 135.6 210.653C 129.304 212.141 122.029 212.094 121.441 210.563C 120.657 208.521 122.024 207.698 132 204.21C 134.09 203.479 136.34 202.594 137 202.243C 137.66 201.892 138.432 201.604 138.716 201.602C 139.264 201.6 148.181 198.357 150.2 197.426C 151.859 196.661 156.934 194.803 157.41 194.786C 157.624 194.779 158.52 194.425 159.4 194C 160.28 193.575 161.27 193.215 161.6 193.2C 161.93 193.185 162.92 192.825 163.8 192.4C 164.68 191.975 165.63 191.621 165.911 191.614C 168.462 191.546 174.8 186.379 174.8 184.367C 174.8 180.502 169.819 179.054 162.28 180.727C 160.256 181.177 157.7 181.659 156.6 181.8C 155.5 181.941 153.61 182.381 152.4 182.779C 151.19 183.177 149.3 183.795 148.2 184.153C 147.1 184.511 145.745 184.803 145.189 184.802C 144.633 184.801 143.823 185.044 143.389 185.343C 142.955 185.642 141.61 186.108 140.4 186.38C 139.19 186.652 136.13 187.558 133.6 188.393C 126.719 190.665 124.818 191.248 122.4 191.825C 121.19 192.113 118.58 192.809 116.6 193.37C 107.437 195.967 106.066 196.201 100.2 196.174C 87.495 196.114 85.652 191.314 95.6 184.193C 96.81 183.327 97.98 182.419 98.2 182.176C 98.42 181.934 99.59 181.033 100.8 180.175C 103.037 178.588 105.908 176.325 109.262 173.505C 114.183 169.366 116.35 162.791 113.762 159.848C 111.43 157.196 108.12 158.224 101.35 163.703C 99.717 165.025 96.822 166.792 94.555 167.851C 92.053 169.021 89.824 170.411 88.471 171.648C 87.297 172.722 86.162 173.6 85.951 173.6C 85.739 173.6 84.591 174.32 83.4 175.2C 82.209 176.08 81.071 176.8 80.871 176.8C 80.671 176.8 80.079 177.131 79.554 177.536C 79.029 177.941 77.997 178.478 77.261 178.729C 69.858 181.254 52.119 198.947 48.408 207.506C 46.453 212.015 41.708 216.192 40.592 214.387C 40.163 213.693 40.296 193.162 40.746 190.6C 40.978 189.28 41.357 186.13 41.588 183.6C 41.819 181.07 42.268 178.28 42.587 177.4C 42.905 176.52 43.173 175.086 43.182 174.213C 43.201 172.526 44.306 167.494 45.601 163.2C 46.032 161.77 46.583 159.79 46.824 158.8C 47.066 157.81 47.712 155.74 48.26 154.2C 48.808 152.66 49.442 150.77 49.67 150C 50.243 148.061 51.739 144.52 53.978 139.8C 55.022 137.6 56.113 135.17 56.404 134.4C 56.694 133.63 57.137 132.73 57.387 132.4C 57.638 132.07 58.533 130.45 59.376 128.8C 62.434 122.818 68.986 112.674 71.87 109.46C 72.491 108.767 73.428 107.573 73.951 106.807C 74.474 106.04 75.131 105.23 75.41 105.007C 75.689 104.783 77.027 103.25 78.383 101.6C 81.32 98.025 86.209 92.628 87.581 91.446C 88.121 90.981 88.931 90.177 89.381 89.66C 90.957 87.85 101.7 78.8 102.272 78.8C 102.48 78.8 103.168 78.26 103.8 77.6C 104.432 76.94 105.099 76.4 105.281 76.4C 105.585 76.4 107.91 74.815 112.304 71.611C 113.241 70.928 115.041 69.81 116.304 69.128C 117.567 68.446 118.87 67.688 119.2 67.444C 121.713 65.585 139.592 56.825 140.952 56.787C 141.198 56.781 142.3 56.332 143.4 55.791C 144.5 55.25 145.709 54.806 146.086 54.804C 146.464 54.802 147.364 54.544 148.086 54.231C 148.809 53.918 150.66 53.296 152.2 52.85C 153.74 52.403 156.53 51.59 158.4 51.044C 160.27 50.497 162.592 49.928 163.559 49.78C 164.527 49.631 165.885 49.273 166.576 48.984C 167.268 48.695 168.997 48.33 170.417 48.173C 171.838 48.016 173.449 47.721 173.997 47.517C 174.545 47.313 178.145 46.88 181.997 46.555C 185.849 46.229 190.08 45.815 191.4 45.634C 194.674 45.185 211.28 45.173 214 45.618" stroke="none" fill="#FBFBFB" fill-rule="evenodd" />
	</g>
</g>
</svg>
