<?xml version="1.0" standalone="no"?>
<!DOCTYPE svg PUBLIC "-//W3C//DTD SVG 1.0//EN" "http://www.w3.org/TR/2001/REC-SVG-20010904/DTD/svg10.dtd">
<svg xmlns="http://www.w3.org/2000/svg" xmlns:xlink="http://www.w3.org/1999/xlink" id="body_1" width="400" height="400">

<g transform="matrix(1 0 0 1 0 0)">
	<g>
        <path d="M184.6 54.016C 176.874 55.002 170.351 56.053 168.636 56.588C 167.556 56.924 166.217 57.2 165.66 57.2C 164.766 57.2 162.044 57.953 156 59.872C 155.01 60.187 153.21 60.72 152 61.059C 150.79 61.397 149.62 61.821 149.4 62C 149.18 62.18 148.01 62.684 146.8 63.121C 142.267 64.759 140.943 65.279 138.8 66.261C 137.59 66.815 136.33 67.421 136 67.607C 135.67 67.794 133.96 68.681 132.2 69.58C 130.44 70.479 128.1 71.747 127 72.399C 125.9 73.05 124.301 73.992 123.446 74.492C 121.097 75.864 118.475 77.594 113.685 80.931C 103.98 87.69 87.943 103.493 82.155 112C 81.632 112.77 80.797 113.961 80.301 114.646C 78.314 117.392 75.826 121.161 74.492 123.446C 71.684 128.255 70.565 130.335 68.023 135.472C 65.313 140.947 64.847 142.024 63.121 146.8C 62.684 148.01 62.18 149.18 62 149.4C 61.821 149.62 61.397 150.79 61.059 152C 60.72 153.21 60.178 155.01 59.854 156C 58.399 160.441 57.2 164.793 57.2 165.633C 57.2 166.137 56.848 167.82 56.418 169.374C 55.718 171.9 55.097 175.794 53.988 184.6C 53.524 188.285 53.51 206.039 53.971 206.767C 54.543 207.671 56.493 205.549 59.087 201.2C 60.334 199.11 61.679 197.028 62.077 196.574C 62.475 196.12 62.8 195.622 62.8 195.469C 62.8 195.156 65.487 191.735 68.331 188.427C 71.204 185.085 74.305 182.153 77.598 179.665C 81.857 176.447 82.657 175.93 86.01 174.231C 87.655 173.398 89.284 172.465 89.631 172.158C 89.979 171.851 90.396 171.6 90.558 171.6C 90.933 171.6 93.279 169.866 95.577 167.891C 97.066 166.611 102.578 163.6 103.432 163.6C 103.572 163.6 105.062 162.466 106.743 161.08C 115.324 154.007 119.811 153.726 121.426 160.162C 122.213 163.297 117.463 170.566 112.253 174.2C 111.623 174.64 110.363 175.586 109.453 176.303C 108.544 177.019 107.62 177.742 107.4 177.908C 98.961 184.294 97.023 186.641 98.664 188.484C 101.281 191.423 111.717 191.174 121.4 187.942C 122.06 187.721 124.04 187.12 125.8 186.606C 127.56 186.091 129.54 185.493 130.2 185.276C 130.86 185.059 132.93 184.426 134.8 183.869C 136.67 183.312 139.82 182.37 141.8 181.777C 143.78 181.184 146.57 180.354 148 179.933C 149.43 179.513 151.78 178.8 153.222 178.348C 154.664 177.897 157.094 177.291 158.622 177.002C 160.15 176.712 163.02 176.171 165 175.799C 170.433 174.778 174.115 175.858 175.13 178.772C 176.564 182.886 172.153 186.28 160.046 190.376C 157.824 191.128 154.522 192.405 152.2 193.412C 151.54 193.698 150.19 194.208 149.2 194.545C 148.21 194.883 146.14 195.639 144.6 196.226C 143.06 196.813 140.9 197.619 139.8 198.018C 138.7 198.417 137.26 199.025 136.6 199.369C 135.94 199.713 135.13 199.998 134.8 200.001C 134.47 200.005 133.3 200.45 132.2 200.991C 131.1 201.532 129.817 201.981 129.349 201.987C 128.22 202.004 127.471 202.964 127.794 203.981C 128.095 204.928 130.153 205.074 133.976 204.419C 141.266 203.169 148.947 201.991 151.2 201.777C 152.63 201.642 154.97 201.289 156.4 200.994C 157.83 200.699 161.07 200.243 163.6 199.982C 166.13 199.72 169.28 199.26 170.6 198.959C 175.093 197.935 181.813 198.209 183.859 199.5C 188.684 202.546 187.462 208.527 181.754 209.803C 180.459 210.093 178.14 210.612 176.6 210.958C 175.06 211.303 173.116 211.589 172.279 211.593C 171.442 211.597 169.552 211.871 168.079 212.201C 165.571 212.764 162.5 213.227 148 215.224C 144.81 215.663 141.66 216.195 141 216.407C 140.34 216.618 138.09 216.966 136 217.18C 132.16 217.573 130.8 218.258 130.8 219.799C 130.8 221.357 132.652 221.513 153.8 221.732C 178.444 221.987 180.013 222.266 181.137 226.585C 182.883 233.296 178.682 234.642 155 234.959C 140.437 235.154 127.328 235.877 126.48 236.53C 126.18 236.761 126.011 237.521 126.08 238.323C 126.223 239.986 127.896 240.648 137.4 242.809C 140.48 243.509 144.8 244.515 147 245.044C 149.2 245.573 151.36 246.003 151.8 246.001C 152.24 245.998 153.41 246.267 154.4 246.597C 155.39 246.928 156.958 247.384 157.885 247.611C 160.328 248.208 163.6 251.46 163.6 253.289C 163.6 256.073 159.901 258.445 155.5 258.485C 153.52 258.502 152.386 258.251 145.994 256.378C 143.324 255.596 135.975 254.611 129.306 254.142C 124.122 253.778 70.611 255.326 68.004 255.915C 65.464 256.49 65.537 257.489 68.568 263.616C 72.054 270.663 72.568 271.571 76.366 277.4C 77.369 278.94 78.372 280.496 78.595 280.858C 82.014 286.416 90.294 296.303 97.4 303.312C 100.447 306.318 111.704 316 112.151 316C 112.268 316 113.534 316.855 114.966 317.9C 118.718 320.64 122.285 322.915 127.3 325.767C 129.669 327.114 138.112 331.321 141 332.594C 142.32 333.175 143.91 333.91 144.532 334.226C 145.155 334.541 145.839 334.8 146.053 334.8C 146.266 334.8 147.826 335.322 149.52 335.961C 152.31 337.012 155.536 338.046 161.497 339.798C 184.356 346.517 210.486 346.322 238.775 339.22C 240.632 338.754 242.342 338.218 242.575 338.029C 242.809 337.839 243.99 337.409 245.2 337.073C 247.833 336.341 251.74 334.979 253.4 334.214C 254.06 333.91 255.68 333.187 257 332.606C 259.912 331.327 268.391 327.115 270.6 325.851C 271.48 325.348 272.92 324.524 273.8 324.021C 274.68 323.518 275.878 322.767 276.462 322.353C 277.046 321.939 277.631 321.6 277.762 321.6C 277.893 321.6 278.315 321.315 278.7 320.966C 279.085 320.618 280.48 319.625 281.8 318.761C 297.644 308.389 313.755 291.051 324.508 272.8C 325.351 271.37 326.199 269.93 326.394 269.6C 326.588 269.27 327.855 266.75 329.209 264C 330.563 261.25 331.938 258.468 332.265 257.817C 332.847 256.656 334.94 251.348 336.371 247.4C 339.726 238.149 342.091 228.074 341.169 226.963C 340.22 225.819 336.333 226.506 327.4 229.396C 325.86 229.894 322.71 230.881 320.4 231.588C 318.09 232.296 315.66 233.122 315 233.424C 314.34 233.727 312.9 234.19 311.8 234.453C 310.7 234.716 309.44 235.152 309 235.421C 308.56 235.69 307.488 236.035 306.619 236.188C 305.749 236.342 304.39 236.797 303.6 237.2C 302.81 237.603 301.451 238.058 300.581 238.212C 299.712 238.365 298.64 238.712 298.2 238.984C 297.76 239.256 296.41 239.709 295.2 239.991C 293.99 240.273 292.55 240.741 292 241.031C 291.45 241.321 290.1 241.824 289 242.149C 285.216 243.265 282.024 244.45 277 246.602C 272.22 248.65 263.999 253.164 262.8 254.399C 261.554 255.682 256.665 258.575 255.112 258.948C 246.318 261.06 243.009 254.5 250.181 249.172C 251.197 248.417 252.676 247.305 253.469 246.7C 254.261 246.095 255.127 245.6 255.393 245.6C 255.659 245.6 256.202 245.24 256.6 244.8C 256.998 244.36 257.48 244 257.672 244C 257.863 244 258.96 243.365 260.11 242.589C 262.47 240.995 262.637 240.887 265.4 239.145C 266.5 238.452 268.701 237.01 270.291 235.942C 271.88 234.874 273.275 234 273.391 234C 273.506 234 273.947 233.685 274.371 233.3C 274.796 232.915 275.423 232.37 275.767 232.089C 279.251 229.233 275.2 227.463 269.467 229.337C 267.89 229.853 264.71 230.871 262.4 231.599C 260.09 232.327 257.75 233.138 257.2 233.401C 256.65 233.664 255.3 234.114 254.2 234.401C 253.1 234.689 251.996 235.081 251.746 235.273C 251.497 235.464 250.417 235.875 249.346 236.186C 247.262 236.79 241.918 238.614 240.6 239.171C 233.335 242.242 224.859 243.128 222.618 241.052C 218.492 237.228 221 232.577 228.8 229.592C 230.67 228.877 233.311 227.866 234.668 227.346C 236.026 226.826 237.286 226.394 237.468 226.386C 237.651 226.379 238.52 226.025 239.4 225.6C 240.28 225.175 241.297 224.821 241.66 224.814C 242.023 224.806 243.283 224.352 244.46 223.804C 245.637 223.256 246.965 222.806 247.411 222.804C 247.857 222.802 248.585 222.546 249.028 222.235C 249.472 221.925 250.871 221.369 252.138 221.001C 253.404 220.633 254.927 220.078 255.52 219.768C 256.114 219.458 256.82 219.204 257.088 219.202C 257.357 219.201 258.56 218.75 259.763 218.2C 260.965 217.65 262.224 217.2 262.56 217.2C 263.36 217.2 266 214.875 266 214.171C 266 212.712 264.162 212.516 259.077 213.434C 248.869 215.276 244.936 216.057 243.027 216.619C 241.942 216.939 240.495 217.2 239.811 217.2C 239.128 217.2 237.495 217.484 236.184 217.831C 234.873 218.177 231.91 218.808 229.6 219.232C 227.29 219.657 224.14 220.27 222.6 220.595C 215.216 222.153 210.358 221.787 208.695 219.546C 204.869 214.392 211.242 209.146 223.4 207.439C 224.5 207.284 226.21 206.912 227.2 206.611C 228.19 206.31 229.9 205.947 231 205.804C 232.1 205.662 234.08 205.271 235.4 204.935C 236.72 204.599 239.15 204.089 240.8 203.8C 242.45 203.511 245.51 202.9 247.6 202.443C 249.69 201.985 251.863 201.608 252.429 201.605C 252.995 201.602 254.255 201.348 255.229 201.041C 256.203 200.733 258.26 200.275 259.8 200.022C 262.22 199.625 262.668 199.419 263.1 198.501C 263.993 196.608 264.098 196.618 239.885 196.298L239.885 196.298L217.01 195.996L214.378 194.963C 212.097 194.069 211.616 193.695 210.781 192.165L210.781 192.165L209.817 190.4L210.748 188.696C 211.815 186.742 214.279 184.8 215.691 184.8C 216.221 184.8 217.992 184.442 219.627 184.006C 221.523 183.499 225.063 183.065 229.4 182.808C 233.14 182.587 238.09 182.227 240.4 182.008C 242.71 181.789 250.625 181.324 257.989 180.974C 265.352 180.624 271.497 180.263 271.644 180.173C 271.791 180.082 273.202 179.736 274.779 179.404C 279.841 178.34 285.337 175.288 285.71 173.335C 285.952 172.071 283.847 169.6 282.529 169.6C 282.116 169.6 281.412 169.344 280.965 169.031C 280.518 168.718 279.001 168.163 277.594 167.798C 276.187 167.434 274.577 166.904 274.018 166.621C 273.458 166.338 272.288 165.978 271.419 165.82C 270.549 165.662 269.161 165.188 268.335 164.767C 267.508 164.345 266.543 164 266.191 164C 265.385 164 260.45 161.674 259.464 160.83C 254.951 156.966 253.676 153.735 255.371 150.456C 256.581 148.117 261.33 147.673 265.8 149.482C 269.382 150.931 273.418 152 275.309 152C 277.572 152 281.108 152.727 282.196 153.417C 282.638 153.697 284.411 154.212 286.136 154.561C 287.861 154.911 289.442 155.302 289.65 155.431C 289.858 155.56 291.643 155.816 293.616 156.001C 299.887 156.59 312.097 161.281 317.653 165.238C 318.242 165.657 318.831 166 318.962 166C 319.093 166 319.542 166.315 319.96 166.7C 320.377 167.085 321.378 167.85 322.182 168.4C 322.987 168.95 325.03 170.533 326.723 171.919C 331.67 175.968 337.754 178.661 341.211 178.332C 343.003 178.162 343.245 176.045 342.04 171.099C 341.598 169.285 340.971 166.63 340.646 165.2C 339.914 161.979 338.251 155.873 337.595 154C 335.856 149.032 332.897 141.344 332.208 140C 331.926 139.45 330.589 136.75 329.237 134C 327.885 131.25 326.613 128.73 326.409 128.4C 326.206 128.07 325.351 126.63 324.508 125.2C 322.052 121.031 319.937 117.756 317.9 114.966C 316.855 113.534 316 112.268 316 112.151C 316 109.454 293.431 87.261 284.119 80.8C 280.627 78.377 276.112 75.396 274.4 74.382C 273.63 73.926 272.1 73.023 271 72.375C 268.37 70.827 256.097 64.8 255.572 64.8C 255.347 64.8 254.318 64.35 253.285 63.8C 252.252 63.25 251.04 62.8 250.592 62.8C 250.144 62.8 249.412 62.544 248.965 62.231C 248.518 61.918 247.02 61.368 245.637 61.01C 244.253 60.651 242.824 60.19 242.461 59.984C 241.863 59.646 238.423 58.674 234.2 57.65C 227.643 56.06 224.823 55.496 220.8 54.969C 218.27 54.638 214.94 54.202 213.4 54.001C 210.071 53.566 188.036 53.577 184.6 54.016" stroke="none" fill="#FAFBFB" fill-rule="nonzero" />
        <path d="M0 200L0 400L200 400L400 400L400 200L400 0L200 0L0 0L0 200zM213.4 54.001C 214.94 54.202 218.27 54.638 220.8 54.969C 224.823 55.496 227.643 56.06 234.2 57.65C 238.423 58.674 241.863 59.646 242.461 59.984C 242.824 60.19 244.253 60.651 245.637 61.01C 247.02 61.368 248.518 61.918 248.965 62.231C 249.412 62.544 250.144 62.8 250.592 62.8C 251.04 62.8 252.252 63.25 253.285 63.8C 254.318 64.35 255.347 64.8 255.572 64.8C 256.097 64.8 268.37 70.827 271 72.375C 272.1 73.023 273.63 73.926 274.4 74.382C 287.26 81.996 300.619 93.548 311.212 106.214C 313.845 109.363 316 112.035 316 112.151C 316 112.268 316.855 113.534 317.9 114.966C 319.937 117.756 322.052 121.031 324.508 125.2C 325.351 126.63 326.206 128.07 326.409 128.4C 326.613 128.73 327.885 131.25 329.237 134C 330.589 136.75 331.926 139.45 332.208 140C 332.897 141.344 335.856 149.032 337.595 154C 338.251 155.873 339.914 161.979 340.646 165.2C 340.971 166.63 341.598 169.285 342.04 171.099C 343.245 176.045 343.003 178.162 341.211 178.332C 337.754 178.661 331.67 175.968 326.723 171.919C 325.03 170.533 322.987 168.95 322.182 168.4C 321.378 167.85 320.377 167.085 319.96 166.7C 319.542 166.315 319.093 166 318.962 166C 318.831 166 318.242 165.657 317.653 165.238C 312.097 161.281 299.887 156.59 293.616 156.001C 291.643 155.816 289.858 155.56 289.65 155.431C 289.442 155.302 287.861 154.911 286.136 154.561C 284.411 154.212 282.638 153.697 282.196 153.417C 281.108 152.727 277.572 152 275.309 152C 273.418 152 269.382 150.931 265.8 149.482C 255.01 145.116 250.514 153.168 259.464 160.83C 260.45 161.674 265.385 164 266.191 164C 266.543 164 267.508 164.345 268.335 164.767C 269.161 165.188 270.549 165.662 271.419 165.82C 272.288 165.978 273.458 166.338 274.018 166.621C 274.577 166.904 276.187 167.434 277.594 167.798C 279.001 168.163 280.518 168.718 280.965 169.031C 281.412 169.344 282.116 169.6 282.529 169.6C 283.847 169.6 285.952 172.071 285.71 173.335C 285.337 175.288 279.841 178.34 274.779 179.404C 273.202 179.736 271.791 180.082 271.644 180.173C 271.497 180.263 265.352 180.624 257.989 180.974C 250.625 181.324 242.71 181.789 240.4 182.008C 238.09 182.227 233.14 182.587 229.4 182.808C 225.063 183.065 221.523 183.499 219.627 184.006C 217.992 184.442 216.221 184.8 215.691 184.8C 214.279 184.8 211.815 186.742 210.748 188.696L210.748 188.696L209.817 190.4L210.781 192.165C 211.616 193.695 212.097 194.069 214.378 194.963L214.378 194.963L217.01 195.996L239.885 196.298C 264.098 196.618 263.993 196.608 263.1 198.501C 262.668 199.419 262.22 199.625 259.8 200.022C 258.26 200.275 256.203 200.733 255.229 201.041C 254.255 201.348 252.995 201.602 252.429 201.605C 251.863 201.608 249.69 201.985 247.6 202.443C 245.51 202.9 242.45 203.511 240.8 203.8C 239.15 204.089 236.72 204.599 235.4 204.935C 234.08 205.271 232.1 205.662 231 205.804C 229.9 205.947 228.19 206.31 227.2 206.611C 226.21 206.912 224.5 207.284 223.4 207.439C 211.242 209.146 204.869 214.392 208.695 219.546C 210.358 221.787 215.216 222.153 222.6 220.595C 224.14 220.27 227.29 219.657 229.6 219.232C 231.91 218.808 234.873 218.177 236.184 217.831C 237.495 217.484 239.128 217.2 239.811 217.2C 240.495 217.2 241.942 216.939 243.027 216.619C 244.936 216.057 248.869 215.276 259.077 213.434C 264.162 212.516 266 212.712 266 214.171C 266 214.875 263.36 217.2 262.56 217.2C 262.224 217.2 260.965 217.65 259.763 218.2C 258.56 218.75 257.357 219.201 257.088 219.202C 256.82 219.204 256.114 219.458 255.52 219.768C 254.927 220.078 253.404 220.633 252.138 221.001C 250.871 221.369 249.472 221.925 249.028 222.235C 248.585 222.546 247.857 222.802 247.411 222.804C 246.965 222.806 245.637 223.256 244.46 223.804C 243.283 224.352 242.023 224.806 241.66 224.814C 241.297 224.821 240.28 225.175 239.4 225.6C 238.52 226.025 237.651 226.379 237.468 226.386C 237.286 226.394 236.026 226.826 234.668 227.346C 233.311 227.866 230.67 228.877 228.8 229.592C 221 232.577 218.492 237.228 222.618 241.052C 224.859 243.128 233.335 242.242 240.6 239.171C 241.918 238.614 247.262 236.79 249.346 236.186C 250.417 235.875 251.497 235.464 251.746 235.273C 251.996 235.081 253.1 234.689 254.2 234.401C 255.3 234.114 256.65 233.664 257.2 233.401C 257.75 233.138 260.09 232.327 262.4 231.599C 264.71 230.871 267.89 229.853 269.467 229.337C 275.2 227.463 279.251 229.233 275.767 232.089C 275.423 232.37 274.796 232.915 274.371 233.3C 273.947 233.685 273.506 234 273.391 234C 273.275 234 271.88 234.874 270.291 235.942C 268.701 237.01 266.5 238.452 265.4 239.145C 262.637 240.887 262.47 240.995 260.11 242.589C 258.96 243.365 257.863 244 257.672 244C 257.48 244 256.998 244.36 256.6 244.8C 256.202 245.24 255.659 245.6 255.393 245.6C 255.127 245.6 254.261 246.095 253.469 246.7C 252.676 247.305 251.197 248.417 250.181 249.172C 243.009 254.5 246.318 261.06 255.112 258.948C 256.665 258.575 261.554 255.682 262.8 254.399C 263.999 253.164 272.22 248.65 277 246.602C 282.024 244.45 285.216 243.265 289 242.149C 290.1 241.824 291.45 241.321 292 241.031C 292.55 240.741 293.99 240.273 295.2 239.991C 296.41 239.709 297.76 239.256 298.2 238.984C 298.64 238.712 299.712 238.365 300.581 238.212C 301.451 238.058 302.81 237.603 303.6 237.2C 304.39 236.797 305.749 236.342 306.619 236.188C 307.488 236.035 308.56 235.69 309 235.421C 309.44 235.152 310.7 234.716 311.8 234.453C 312.9 234.19 314.34 233.727 315 233.424C 315.66 233.122 318.09 232.296 320.4 231.588C 322.71 230.881 325.86 229.894 327.4 229.396C 336.333 226.506 340.22 225.819 341.169 226.963C 342.091 228.074 339.726 238.149 336.371 247.4C 334.94 251.348 332.847 256.656 332.265 257.817C 331.938 258.468 330.563 261.25 329.209 264C 327.855 266.75 326.588 269.27 326.394 269.6C 326.199 269.93 325.351 271.37 324.508 272.8C 313.755 291.051 297.644 308.389 281.8 318.761C 280.48 319.625 279.085 320.618 278.7 320.966C 278.315 321.315 277.893 321.6 277.762 321.6C 277.631 321.6 277.046 321.939 276.462 322.353C 275.878 322.767 274.68 323.518 273.8 324.021C 272.92 324.524 271.48 325.348 270.6 325.851C 268.391 327.115 259.912 331.327 257 332.606C 255.68 333.187 254.06 333.91 253.4 334.214C 251.74 334.979 247.833 336.341 245.2 337.073C 243.99 337.409 242.809 337.839 242.575 338.029C 241.96 338.527 229.998 341.463 224.8 342.391C 207.823 345.423 188.705 345.421 173 342.387C 168.688 341.554 163.496 340.385 161.497 339.798C 155.536 338.046 152.31 337.012 149.52 335.961C 147.826 335.322 146.266 334.8 146.053 334.8C 145.839 334.8 145.155 334.541 144.532 334.226C 143.91 333.91 142.32 333.175 141 332.594C 131.737 328.513 121.887 322.953 114.966 317.9C 113.534 316.855 112.268 316 112.151 316C 111.704 316 100.447 306.318 97.4 303.312C 90.294 296.303 82.014 286.416 78.595 280.858C 78.372 280.496 77.369 278.94 76.366 277.4C 72.568 271.571 72.054 270.663 68.568 263.616C 65.537 257.489 65.464 256.49 68.004 255.915C 70.611 255.326 124.122 253.778 129.306 254.142C 135.975 254.611 143.324 255.596 145.994 256.378C 152.386 258.251 153.52 258.502 155.5 258.485C 159.901 258.445 163.6 256.073 163.6 253.289C 163.6 251.46 160.328 248.208 157.885 247.611C 156.958 247.384 155.39 246.928 154.4 246.597C 153.41 246.267 152.24 245.998 151.8 246.001C 151.36 246.003 149.2 245.573 147 245.044C 144.8 244.515 140.48 243.509 137.4 242.809C 127.896 240.648 126.223 239.986 126.08 238.323C 126.011 237.521 126.18 236.761 126.48 236.53C 127.328 235.877 140.437 235.154 155 234.959C 178.682 234.642 182.883 233.296 181.137 226.585C 180.013 222.266 178.444 221.987 153.8 221.732C 132.652 221.513 130.8 221.357 130.8 219.799C 130.8 218.258 132.16 217.573 136 217.18C 138.09 216.966 140.34 216.618 141 216.407C 141.66 216.195 144.81 215.663 148 215.224C 162.5 213.227 165.571 212.764 168.079 212.201C 169.552 211.871 171.442 211.597 172.279 211.593C 173.116 211.589 175.06 211.303 176.6 210.958C 178.14 210.612 180.459 210.093 181.754 209.803C 187.462 208.527 188.684 202.546 183.859 199.5C 181.813 198.209 175.093 197.935 170.6 198.959C 169.28 199.26 166.13 199.72 163.6 199.982C 161.07 200.243 157.83 200.699 156.4 200.994C 154.97 201.289 152.63 201.642 151.2 201.777C 148.947 201.991 141.266 203.169 133.976 204.419C 130.153 205.074 128.095 204.928 127.794 203.981C 127.471 202.964 128.22 202.004 129.349 201.987C 129.817 201.981 131.1 201.532 132.2 200.991C 133.3 200.45 134.47 200.005 134.8 200.001C 135.13 199.998 135.94 199.713 136.6 199.369C 137.26 199.025 138.7 198.417 139.8 198.018C 140.9 197.619 143.06 196.813 144.6 196.226C 146.14 195.639 148.21 194.883 149.2 194.545C 150.19 194.208 151.54 193.698 152.2 193.412C 154.522 192.405 157.824 191.128 160.046 190.376C 172.153 186.28 176.564 182.886 175.13 178.772C 174.115 175.858 170.433 174.778 165 175.799C 163.02 176.171 160.15 176.712 158.622 177.002C 157.094 177.291 154.664 177.897 153.222 178.348C 151.78 178.8 149.43 179.513 148 179.933C 146.57 180.354 143.78 181.184 141.8 181.777C 139.82 182.37 136.67 183.312 134.8 183.869C 132.93 184.426 130.86 185.059 130.2 185.276C 129.54 185.493 127.56 186.091 125.8 186.606C 124.04 187.12 122.06 187.721 121.4 187.942C 111.717 191.174 101.281 191.423 98.664 188.484C 97.023 186.641 98.961 184.294 107.4 177.908C 107.62 177.742 108.544 177.019 109.453 176.303C 110.363 175.586 111.623 174.64 112.253 174.2C 117.463 170.566 122.213 163.297 121.426 160.162C 119.811 153.726 115.324 154.007 106.743 161.08C 105.062 162.466 103.572 163.6 103.432 163.6C 102.578 163.6 97.066 166.611 95.577 167.891C 93.279 169.866 90.933 171.6 90.558 171.6C 90.396 171.6 89.979 171.851 89.631 172.158C 89.284 172.465 87.655 173.398 86.01 174.231C 82.657 175.93 81.857 176.447 77.598 179.665C 74.305 182.153 71.204 185.085 68.331 188.427C 65.487 191.735 62.8 195.156 62.8 195.469C 62.8 195.622 62.475 196.12 62.077 196.574C 61.679 197.028 60.334 199.11 59.087 201.2C 56.493 205.549 54.543 207.671 53.971 206.767C 53.51 206.039 53.524 188.285 53.988 184.6C 55.097 175.794 55.718 171.9 56.418 169.374C 56.848 167.82 57.2 166.137 57.2 165.633C 57.2 164.793 58.399 160.441 59.854 156C 60.178 155.01 60.72 153.21 61.059 152C 61.397 150.79 61.821 149.62 62 149.4C 62.18 149.18 62.684 148.01 63.121 146.8C 64.847 142.024 65.313 140.947 68.023 135.472C 70.565 130.335 71.684 128.255 74.492 123.446C 75.826 121.161 78.314 117.392 80.301 114.646C 80.797 113.961 81.632 112.77 82.155 112C 87.943 103.493 103.98 87.69 113.685 80.931C 118.475 77.594 121.097 75.864 123.446 74.492C 124.301 73.992 125.9 73.05 127 72.399C 128.1 71.747 130.44 70.479 132.2 69.58C 133.96 68.681 135.67 67.794 136 67.607C 136.33 67.421 137.59 66.815 138.8 66.261C 140.943 65.279 142.267 64.759 146.8 63.121C 148.01 62.684 149.18 62.18 149.4 62C 149.62 61.821 150.79 61.397 152 61.059C 153.21 60.72 155.01 60.187 156 59.872C 162.044 57.953 164.766 57.2 165.66 57.2C 166.217 57.2 167.556 56.924 168.636 56.588C 170.351 56.053 176.874 55.002 184.6 54.016C 188.036 53.577 210.071 53.566 213.4 54.001" stroke="none" fill="#6CABD3" fill-rule="nonzero" />
	</g>
</g>
</svg>
