<svg id="svg" version="1.1" xmlns="http://www.w3.org/2000/svg" xmlns:xlink="http://www.w3.org/1999/xlink" width="400" height="92.04545454545455" viewBox="0, 0, 400,92.04545454545455"><g id="svgg"><path id="path0" d="M45.333 13.815 C 44.921 13.884,44.208 14.072,43.750 14.234 C 43.292 14.396,42.372 14.633,41.707 14.762 C 41.041 14.890,40.215 15.138,39.872 15.313 C 39.529 15.489,38.911 15.722,38.499 15.831 C 37.348 16.137,34.168 17.913,32.983 18.911 C 32.652 19.189,32.090 19.638,31.733 19.908 C 30.815 20.602,27.744 23.724,27.251 24.464 C 27.024 24.805,26.499 25.552,26.084 26.126 C 24.769 27.944,23.286 31.109,22.824 33.083 C 22.717 33.542,22.431 34.442,22.189 35.083 C 21.383 37.225,21.489 43.438,22.323 42.923 C 22.402 42.875,22.630 42.520,22.830 42.135 C 23.484 40.880,25.951 38.133,26.841 37.668 C 27.066 37.551,27.887 37.034,28.667 36.521 C 29.446 36.007,30.376 35.453,30.735 35.290 C 31.093 35.126,31.566 34.813,31.786 34.593 C 32.566 33.813,34.167 33.932,34.167 34.770 C 34.167 35.265,33.575 36.124,32.803 36.750 C 31.153 38.088,30.170 39.147,30.288 39.457 C 30.595 40.258,31.551 40.504,33.083 40.176 C 33.450 40.098,34.150 39.952,34.639 39.852 C 35.128 39.752,35.878 39.512,36.305 39.318 C 36.733 39.125,37.546 38.867,38.111 38.745 C 38.675 38.623,39.566 38.321,40.090 38.073 C 41.431 37.438,43.762 37.288,44.228 37.807 C 44.605 38.226,44.221 39.084,43.492 39.453 C 42.756 39.825,40.942 40.512,39.605 40.924 C 38.792 41.174,38.146 41.487,37.905 41.747 C 37.691 41.978,37.344 42.169,37.133 42.173 C 36.598 42.181,35.833 42.616,36.167 42.722 C 36.304 42.766,36.536 42.839,36.682 42.885 C 36.947 42.969,38.394 42.693,39.499 42.348 C 39.819 42.248,40.571 42.167,41.170 42.167 C 41.769 42.167,42.870 42.090,43.617 41.996 C 45.913 41.708,46.835 42.059,46.572 43.120 C 46.362 43.967,45.952 44.132,43.347 44.421 C 42.160 44.553,40.865 44.781,40.469 44.929 C 40.074 45.076,39.450 45.275,39.083 45.371 C 36.582 46.024,36.982 46.327,40.350 46.331 C 44.890 46.336,45.878 46.605,45.506 47.733 C 45.174 48.737,45.158 48.741,40.683 48.852 C 34.802 48.998,34.247 49.327,37.900 50.498 C 38.258 50.613,39.013 50.803,39.578 50.921 C 41.549 51.334,42.602 52.298,41.875 53.025 C 41.613 53.287,39.699 53.226,39.266 52.943 C 38.336 52.333,28.545 52.099,25.190 52.606 C 23.782 52.818,24.047 55.558,25.600 56.847 C 25.739 56.963,25.950 57.291,26.070 57.577 C 26.189 57.863,26.392 58.206,26.521 58.340 C 26.650 58.474,27.014 58.921,27.330 59.333 C 28.422 60.758,31.196 63.667,31.462 63.667 C 31.546 63.667,31.757 63.824,31.931 64.016 C 32.105 64.208,32.850 64.752,33.586 65.224 C 34.322 65.697,35.073 66.179,35.254 66.297 C 35.435 66.414,36.071 66.741,36.667 67.023 C 37.262 67.305,37.855 67.621,37.983 67.726 C 38.534 68.177,41.198 69.029,44.333 69.758 C 46.783 70.328,52.100 70.331,54.319 69.764 C 54.831 69.633,55.700 69.439,56.250 69.332 C 56.800 69.226,57.550 69.003,57.917 68.836 C 58.283 68.670,58.996 68.404,59.500 68.245 C 60.004 68.087,60.529 67.865,60.667 67.752 C 60.804 67.640,61.479 67.278,62.167 66.948 C 65.698 65.254,70.215 61.381,71.890 58.611 C 72.065 58.321,72.264 58.046,72.331 58.000 C 72.398 57.954,72.585 57.654,72.747 57.333 C 72.908 57.012,73.138 56.637,73.258 56.500 C 73.609 56.098,75.000 53.517,75.000 53.268 C 75.000 53.143,75.218 52.488,75.483 51.812 C 76.636 48.882,76.665 47.178,75.561 47.278 C 74.561 47.369,72.667 47.924,71.922 48.345 C 71.446 48.614,70.890 48.833,70.686 48.833 C 70.483 48.833,69.739 49.051,69.033 49.317 C 68.327 49.583,67.262 49.935,66.667 50.099 C 66.071 50.264,65.108 50.609,64.526 50.866 C 63.945 51.123,63.382 51.333,63.276 51.334 C 63.170 51.334,62.865 51.521,62.599 51.750 C 62.333 51.979,62.033 52.168,61.932 52.169 C 61.832 52.171,61.502 52.391,61.198 52.658 C 60.414 53.349,58.918 53.541,58.579 52.994 C 58.359 52.637,59.332 51.589,60.750 50.655 C 61.575 50.111,62.331 49.601,62.430 49.520 C 62.529 49.440,62.922 49.176,63.305 48.935 C 64.076 48.448,64.128 48.319,63.719 47.909 C 63.329 47.520,61.796 47.705,60.988 48.239 C 60.660 48.455,59.913 48.755,59.327 48.905 C 58.741 49.055,58.034 49.297,57.756 49.441 C 56.256 50.222,53.833 50.201,53.833 49.406 C 53.833 49.194,53.913 48.970,54.010 48.910 C 54.108 48.850,54.253 48.628,54.333 48.417 C 54.436 48.147,54.741 47.951,55.364 47.755 C 55.852 47.602,56.512 47.338,56.833 47.168 C 57.154 46.998,57.792 46.767,58.250 46.655 C 59.380 46.379,59.956 46.069,60.083 45.668 C 60.141 45.484,60.315 45.331,60.470 45.328 C 60.624 45.325,60.883 45.221,61.047 45.098 C 61.696 44.605,60.552 44.592,59.417 45.079 C 59.142 45.197,58.167 45.346,57.250 45.409 C 56.333 45.472,55.072 45.631,54.447 45.762 C 53.203 46.023,52.193 46.065,51.885 45.869 C 51.614 45.696,51.338 44.927,51.473 44.717 C 51.713 44.344,54.618 43.348,55.950 43.182 C 57.306 43.013,58.367 42.683,58.559 42.372 C 58.614 42.283,59.149 42.070,59.746 41.899 C 61.701 41.339,60.944 41.171,56.453 41.169 C 52.317 41.166,51.335 40.796,52.429 39.654 C 53.095 38.958,53.577 38.876,58.167 38.670 C 63.586 38.428,63.550 38.434,65.210 37.388 C 66.271 36.720,65.383 35.932,62.708 35.169 C 62.044 34.979,61.500 34.764,61.500 34.690 C 61.500 34.616,61.307 34.453,61.070 34.326 C 60.002 33.754,60.206 32.333,61.357 32.333 C 61.723 32.333,62.165 32.410,62.340 32.503 C 62.515 32.597,63.391 32.779,64.287 32.908 C 65.183 33.037,66.367 33.305,66.917 33.503 C 67.467 33.701,68.396 33.967,68.982 34.094 C 69.568 34.222,70.243 34.457,70.482 34.618 C 70.721 34.779,71.200 35.041,71.546 35.199 C 71.892 35.358,72.717 35.891,73.379 36.385 C 74.920 37.534,75.472 37.731,76.250 37.406 C 76.571 37.272,76.833 37.121,76.833 37.072 C 76.833 37.022,76.763 36.666,76.676 36.282 C 76.590 35.898,76.394 35.021,76.242 34.333 C 75.781 32.251,74.223 28.536,73.113 26.871 C 69.953 22.131,66.613 19.065,61.900 16.579 C 61.122 16.169,60.372 15.833,60.232 15.833 C 60.093 15.833,59.562 15.643,59.054 15.410 C 58.545 15.178,57.593 14.884,56.939 14.759 C 56.285 14.633,55.337 14.362,54.833 14.157 C 53.854 13.758,47.135 13.517,45.333 13.815 M291.132 16.125 C 290.993 16.285,290.834 16.642,290.780 16.917 C 290.725 17.192,290.501 18.279,290.281 19.333 C 290.061 20.387,289.788 22.113,289.675 23.167 C 289.561 24.221,289.399 25.346,289.315 25.667 C 289.095 26.500,288.500 30.578,288.500 31.252 C 288.500 31.565,288.314 32.554,288.088 33.452 C 287.861 34.349,287.599 35.946,287.506 37.000 C 287.344 38.827,286.930 41.375,286.746 41.672 C 286.699 41.749,286.585 42.810,286.494 44.031 C 286.330 46.211,286.107 47.333,285.838 47.333 C 285.471 47.333,284.667 48.330,284.667 48.785 C 284.667 49.478,284.014 51.977,283.654 52.667 C 283.486 52.987,283.197 53.571,283.012 53.963 C 280.676 58.902,275.921 60.804,273.700 57.687 L 272.917 56.589 272.923 53.419 C 272.931 49.630,273.003 49.197,273.761 48.393 L 274.343 47.777 274.880 48.283 C 276.705 50.002,280.189 49.044,281.452 46.475 C 282.473 44.398,282.862 43.336,283.095 41.985 C 283.240 41.143,283.421 40.291,283.497 40.092 C 283.794 39.309,284.038 36.411,283.956 34.623 C 283.718 29.374,280.374 26.162,277.291 28.219 C 276.212 28.938,274.000 31.587,274.000 32.158 C 274.000 32.227,273.786 32.579,273.525 32.940 C 273.263 33.301,272.954 33.893,272.837 34.256 C 272.721 34.619,272.447 35.313,272.229 35.798 C 272.010 36.283,271.760 36.996,271.673 37.382 C 271.585 37.768,271.360 38.533,271.172 39.083 C 270.983 39.633,270.648 41.021,270.427 42.167 C 270.205 43.313,269.953 44.438,269.867 44.667 C 268.965 47.060,269.004 55.980,269.924 57.833 C 270.038 58.063,270.269 58.587,270.438 59.000 C 270.935 60.214,272.715 62.500,273.163 62.500 C 273.224 62.500,273.522 62.722,273.826 62.994 C 275.505 64.493,279.987 64.378,281.736 62.792 C 282.014 62.540,282.318 62.328,282.412 62.322 C 282.506 62.316,283.070 61.753,283.665 61.072 C 285.004 59.540,285.371 59.473,286.747 60.512 C 288.035 61.485,289.152 61.755,289.873 61.270 C 290.534 60.825,290.565 60.638,290.827 55.417 C 291.027 51.434,291.434 46.575,291.587 46.327 C 291.640 46.242,291.860 44.416,292.076 42.271 C 292.292 40.125,292.542 38.230,292.631 38.060 C 292.831 37.678,293.333 34.284,293.333 33.312 C 293.333 32.921,293.514 31.659,293.734 30.509 C 293.954 29.358,294.258 27.367,294.410 26.083 C 294.561 24.800,294.762 23.412,294.856 23.000 C 295.873 18.541,295.627 16.985,293.763 16.100 C 292.983 15.731,291.462 15.745,291.132 16.125 M243.141 16.904 C 242.400 17.144,242.202 17.623,241.992 19.688 C 241.895 20.639,241.711 21.979,241.582 22.667 C 240.689 27.438,240.642 44.094,241.513 47.514 C 241.596 47.843,241.741 48.893,241.835 49.847 C 242.458 56.199,244.189 61.567,245.900 62.451 C 247.822 63.445,248.902 62.851,249.053 60.718 C 249.107 59.956,249.337 58.339,249.566 57.125 C 249.794 55.910,250.064 54.250,250.165 53.436 C 250.267 52.621,250.487 51.534,250.655 51.019 C 250.822 50.504,251.092 49.183,251.254 48.083 C 251.416 46.983,251.640 45.821,251.752 45.500 C 251.864 45.179,252.045 44.354,252.156 43.667 C 252.354 42.429,253.109 39.092,253.664 37.000 C 253.954 35.909,254.477 35.593,255.056 36.159 C 255.216 36.315,255.589 40.203,255.753 43.417 C 255.813 44.608,256.011 46.558,256.191 47.750 C 256.371 48.942,256.588 50.742,256.674 51.750 C 256.850 53.825,257.060 55.350,257.418 57.167 C 257.553 57.854,257.812 59.182,257.993 60.117 C 258.654 63.545,259.632 64.674,261.980 64.722 C 263.536 64.755,263.611 64.697,264.140 63.083 C 264.593 61.699,264.654 61.385,264.832 59.518 C 264.917 58.617,265.178 57.090,265.411 56.125 C 265.643 55.159,265.834 54.155,265.835 53.893 C 265.837 53.380,266.452 49.712,266.568 49.525 C 266.606 49.463,266.797 48.400,266.991 47.164 C 267.186 45.928,267.451 44.542,267.580 44.083 C 267.710 43.625,267.941 42.575,268.095 41.750 C 268.248 40.925,268.519 39.837,268.697 39.333 C 268.875 38.829,269.174 37.704,269.362 36.833 C 269.549 35.962,269.798 35.063,269.914 34.833 C 270.030 34.604,270.257 33.817,270.419 33.083 C 270.580 32.350,270.894 31.188,271.116 30.500 C 271.338 29.813,271.589 28.892,271.673 28.454 C 271.758 28.016,272.004 27.191,272.222 26.620 C 272.440 26.050,272.715 25.172,272.834 24.669 C 272.953 24.167,273.264 23.344,273.525 22.841 C 273.786 22.338,274.000 21.762,274.000 21.562 C 274.000 21.361,274.185 20.834,274.410 20.390 C 275.138 18.959,275.126 18.810,274.226 18.071 C 273.466 17.445,272.344 16.960,271.940 17.082 C 271.836 17.113,271.538 17.185,271.280 17.242 C 270.919 17.322,270.711 17.549,270.388 18.215 C 270.157 18.692,269.828 19.346,269.658 19.667 C 269.488 19.987,269.298 20.512,269.235 20.833 C 269.173 21.154,268.971 21.716,268.787 22.082 C 268.459 22.733,268.043 24.149,267.243 27.333 C 267.024 28.204,266.764 29.217,266.666 29.583 C 266.054 31.867,265.837 32.795,265.835 33.137 C 265.834 33.350,265.639 34.100,265.401 34.804 C 265.163 35.508,264.901 36.549,264.819 37.118 C 264.737 37.686,264.549 38.474,264.400 38.868 C 264.252 39.261,263.985 40.296,263.808 41.167 C 263.630 42.037,263.269 43.688,263.005 44.833 C 262.742 45.979,262.485 47.367,262.434 47.917 C 262.286 49.521,261.967 50.443,261.664 50.142 C 261.528 50.008,261.289 49.850,261.134 49.791 C 260.742 49.643,260.553 48.786,260.337 46.167 C 260.235 44.929,260.024 43.054,259.867 42.000 C 259.471 39.327,259.473 33.125,259.870 30.583 C 260.027 29.575,260.237 27.813,260.336 26.667 C 260.434 25.521,260.553 24.318,260.599 23.994 C 260.757 22.893,259.063 21.789,257.177 21.764 L 256.104 21.750 255.525 22.750 C 255.000 23.658,254.745 24.277,253.705 27.167 C 253.224 28.502,252.395 31.274,252.159 32.333 C 252.047 32.837,251.862 33.438,251.749 33.667 C 251.635 33.896,251.411 34.683,251.251 35.417 C 251.092 36.150,250.778 37.181,250.555 37.708 C 250.331 38.235,250.078 39.102,249.992 39.634 C 249.907 40.167,249.684 41.066,249.498 41.633 C 249.312 42.200,249.010 43.546,248.828 44.623 C 248.646 45.701,248.390 47.033,248.260 47.583 C 248.129 48.133,247.938 49.033,247.833 49.583 C 247.298 52.410,247.163 52.281,246.324 48.148 L 245.669 44.917 245.676 37.750 C 245.680 33.808,245.746 30.096,245.823 29.500 C 245.899 28.904,246.080 27.517,246.225 26.417 C 246.370 25.317,246.567 23.303,246.662 21.942 C 246.757 20.582,246.870 19.307,246.913 19.109 C 247.206 17.767,244.806 16.364,243.141 16.904 M138.750 17.874 C 137.861 18.173,137.500 18.638,137.499 19.487 C 137.498 19.907,137.387 20.962,137.252 21.833 C 136.970 23.656,136.626 26.294,136.255 29.470 C 135.906 32.467,135.559 33.000,133.959 33.000 C 131.094 33.000,131.047 35.408,133.853 38.436 C 134.889 39.553,134.983 40.075,134.537 42.240 C 134.348 43.162,134.107 44.592,134.002 45.417 C 133.719 47.650,133.337 48.374,132.123 48.980 C 131.648 49.217,131.561 49.371,131.395 50.250 C 130.689 53.997,128.243 58.124,126.198 59.019 C 124.390 59.810,124.194 59.866,123.648 59.746 C 123.344 59.679,122.979 59.570,122.839 59.504 C 121.871 59.049,121.525 58.785,121.083 58.168 L 120.583 57.470 120.590 54.027 C 120.598 49.301,121.001 48.462,122.668 49.694 C 124.343 50.932,127.051 49.926,128.413 47.560 C 128.670 47.115,128.981 46.632,129.106 46.488 C 129.230 46.343,129.481 45.668,129.664 44.988 C 129.847 44.307,130.108 43.344,130.246 42.847 C 130.549 41.752,130.833 38.433,130.833 35.994 L 130.833 34.202 130.027 32.643 L 129.221 31.083 127.986 30.458 C 126.466 29.690,126.004 29.681,124.649 30.395 C 123.697 30.897,121.720 32.984,121.676 33.534 C 121.671 33.599,121.457 34.012,121.201 34.451 C 120.945 34.890,120.597 35.625,120.428 36.083 C 120.259 36.542,120.027 37.029,119.912 37.167 C 119.797 37.304,119.574 37.867,119.418 38.417 C 119.261 38.967,118.991 39.736,118.818 40.126 C 118.645 40.516,118.348 41.603,118.159 42.542 C 117.969 43.482,117.712 44.587,117.588 45.000 C 117.293 45.980,117.021 48.288,116.836 51.386 C 116.674 54.078,116.675 54.077,115.886 54.243 C 115.241 54.379,115.015 54.157,113.014 51.417 C 112.478 50.683,111.717 49.746,111.322 49.333 C 110.928 48.921,110.450 48.383,110.261 48.137 C 110.072 47.892,109.603 47.310,109.220 46.845 C 108.161 45.560,108.425 44.848,110.089 44.500 C 110.550 44.404,111.360 44.064,111.889 43.746 C 112.417 43.427,112.907 43.167,112.977 43.167 C 113.047 43.167,113.320 42.942,113.583 42.667 C 113.847 42.392,114.123 42.167,114.198 42.167 C 114.413 42.167,115.681 40.822,116.240 40.000 C 118.573 36.570,118.589 30.809,116.275 27.370 C 115.734 26.567,113.227 24.000,112.984 24.000 C 112.918 24.000,112.551 23.738,112.167 23.417 C 111.783 23.096,111.397 22.833,111.311 22.833 C 111.224 22.833,110.670 22.608,110.080 22.332 C 109.490 22.056,108.499 21.715,107.879 21.574 C 106.197 21.192,106.222 21.206,105.732 20.432 C 104.644 18.711,102.069 18.711,101.167 20.431 C 100.707 21.308,100.611 21.376,99.444 21.650 C 99.000 21.755,98.080 22.101,97.398 22.420 C 96.717 22.739,96.117 23.000,96.065 23.000 C 95.727 23.000,93.748 25.069,93.052 26.149 C 92.292 27.330,92.143 27.750,92.321 28.208 C 92.482 28.622,93.376 29.667,93.568 29.667 C 93.634 29.667,93.935 29.854,94.235 30.083 C 95.197 30.817,96.667 30.352,96.667 29.315 C 96.667 29.148,96.878 28.765,97.137 28.464 C 97.395 28.163,97.728 27.739,97.875 27.522 C 98.273 26.935,99.364 26.318,99.624 26.533 C 99.941 26.796,99.878 27.971,99.422 30.307 C 99.195 31.467,98.853 33.467,98.661 34.750 C 98.022 39.035,97.708 41.238,97.536 42.667 C 97.441 43.446,97.214 44.833,97.030 45.750 C 96.847 46.667,96.615 48.243,96.516 49.254 C 96.416 50.264,96.219 51.501,96.078 52.004 C 95.937 52.506,95.639 54.529,95.417 56.500 C 95.195 58.471,94.966 60.243,94.909 60.439 C 94.379 62.244,98.971 63.664,99.796 61.950 C 100.171 61.171,100.357 59.454,100.242 57.835 C 100.128 56.227,100.339 53.811,100.686 52.750 C 100.776 52.475,100.995 51.003,101.172 49.480 C 101.672 45.177,101.857 45.149,105.006 48.917 C 106.040 50.155,106.426 50.638,107.329 51.833 C 107.779 52.429,108.259 53.043,108.396 53.197 C 108.532 53.351,108.777 53.689,108.939 53.947 C 109.101 54.205,109.349 54.533,109.492 54.676 C 109.634 54.819,110.125 55.408,110.583 55.984 C 111.042 56.561,111.660 57.332,111.958 57.699 C 112.256 58.065,112.500 58.421,112.500 58.490 C 112.500 58.559,112.631 58.769,112.792 58.956 C 112.952 59.143,113.567 59.912,114.158 60.664 C 115.355 62.189,115.731 62.297,117.041 61.499 C 117.779 61.048,118.926 61.049,119.167 61.501 C 119.807 62.696,123.349 64.443,125.000 64.378 C 126.025 64.337,128.049 63.653,128.708 63.123 C 129.006 62.884,129.715 62.308,130.284 61.844 C 130.853 61.380,131.352 61.000,131.393 61.000 C 131.636 61.000,131.834 62.296,131.836 63.900 C 131.842 68.384,133.374 70.290,136.333 69.497 C 137.152 69.278,138.923 67.751,139.941 66.386 C 140.201 66.036,140.461 65.712,140.518 65.667 C 140.575 65.621,140.791 65.246,140.997 64.833 C 141.203 64.421,141.464 63.971,141.575 63.833 C 141.687 63.696,141.877 63.321,141.998 63.000 C 142.119 62.679,142.469 61.896,142.776 61.260 C 143.082 60.624,143.333 59.977,143.333 59.822 C 143.333 59.667,143.512 59.062,143.729 58.478 C 144.851 55.472,144.863 46.577,143.749 44.083 C 143.544 43.625,143.326 43.034,143.263 42.770 C 143.201 42.506,142.891 41.886,142.575 41.392 C 142.259 40.898,142.000 40.425,142.000 40.342 C 142.000 40.259,141.905 40.091,141.789 39.970 C 140.144 38.256,139.855 36.857,141.083 36.557 C 144.579 35.702,148.564 35.350,148.891 35.866 C 149.112 36.214,148.792 37.963,148.348 38.833 C 148.185 39.154,147.956 39.942,147.841 40.583 C 147.725 41.225,147.413 42.444,147.148 43.291 C 146.883 44.139,146.667 45.098,146.667 45.424 C 146.667 46.253,146.196 49.237,145.893 50.334 C 145.037 53.425,146.779 57.711,149.713 59.732 C 152.212 61.453,154.442 60.339,155.758 56.712 C 155.976 56.110,156.300 55.460,156.477 55.267 C 156.654 55.074,156.951 54.662,157.137 54.351 L 157.476 53.785 157.578 54.434 C 158.003 57.117,158.683 58.573,159.790 59.167 C 160.087 59.326,160.451 59.556,160.598 59.679 C 160.983 59.998,163.058 59.977,163.449 59.650 C 163.615 59.511,163.947 59.314,164.187 59.212 C 164.427 59.110,165.025 58.571,165.515 58.013 C 166.006 57.456,166.544 57.000,166.710 57.000 C 166.993 57.000,168.500 58.389,168.500 58.650 C 168.500 58.715,168.834 59.004,169.241 59.292 C 171.156 60.642,173.513 60.693,175.028 59.419 C 175.302 59.189,175.627 59.000,175.751 59.000 C 175.875 59.000,176.165 58.759,176.396 58.463 C 177.548 56.991,176.701 61.132,175.442 63.126 C 175.199 63.512,175.000 63.926,175.000 64.047 C 175.000 64.169,174.775 64.623,174.500 65.056 C 174.225 65.490,174.000 65.903,174.000 65.973 C 174.000 66.584,171.718 69.000,171.141 69.000 C 170.867 69.000,168.497 66.798,167.990 66.073 C 166.623 64.118,163.901 65.268,163.929 67.789 C 163.937 68.458,164.017 68.922,164.131 68.960 C 164.235 68.995,164.476 69.275,164.666 69.582 C 165.859 71.512,172.368 73.349,173.866 72.179 C 174.077 72.014,174.425 71.824,174.638 71.757 C 175.689 71.428,178.667 67.230,178.667 66.078 C 178.667 65.986,178.805 65.650,178.973 65.331 C 179.142 65.011,179.408 64.230,179.566 63.596 C 179.723 62.961,180.004 62.107,180.190 61.698 C 180.376 61.290,180.603 60.497,180.695 59.936 C 180.786 59.375,181.038 58.242,181.254 57.417 C 181.471 56.592,181.809 54.717,182.007 53.250 C 182.205 51.783,182.425 50.471,182.495 50.333 C 182.690 49.955,182.817 48.890,183.079 45.417 C 183.210 43.675,183.471 41.295,183.659 40.128 C 184.181 36.877,184.161 36.773,182.817 35.855 C 182.163 35.408,181.833 34.826,181.833 34.117 C 181.833 30.479,175.318 29.419,171.789 32.483 C 171.492 32.740,171.161 32.981,171.052 33.017 C 170.748 33.119,168.333 36.431,168.333 36.747 C 168.333 36.805,168.116 37.291,167.850 37.826 C 167.584 38.362,167.241 39.239,167.089 39.775 C 166.936 40.311,166.627 41.216,166.403 41.786 C 165.731 43.489,165.227 49.122,165.550 51.323 C 166.080 54.937,164.002 57.178,161.908 55.250 C 160.945 54.363,161.044 48.119,162.080 44.418 C 162.311 43.593,162.500 42.640,162.500 42.299 C 162.500 41.765,162.742 40.399,163.336 37.583 C 163.414 37.217,163.530 36.152,163.594 35.217 L 163.711 33.518 163.052 32.866 C 162.328 32.149,160.913 31.575,160.295 31.748 C 159.278 32.033,159.206 32.138,158.929 33.729 C 158.783 34.566,158.557 35.662,158.426 36.167 C 158.296 36.671,158.062 37.758,157.907 38.583 C 157.752 39.408,157.533 40.233,157.420 40.417 C 157.307 40.600,157.089 41.275,156.936 41.917 C 156.782 42.558,156.479 43.571,156.261 44.167 C 156.043 44.762,155.732 45.737,155.569 46.333 C 155.407 46.929,155.212 47.501,155.135 47.604 C 155.058 47.707,154.813 48.307,154.590 48.937 C 154.368 49.567,153.994 50.477,153.759 50.958 C 153.525 51.438,153.333 51.934,153.333 52.059 C 153.333 52.184,153.145 52.565,152.914 52.904 C 152.684 53.244,152.389 53.760,152.259 54.052 C 151.765 55.161,151.379 55.228,150.893 54.288 C 150.666 53.848,150.657 53.535,150.827 51.850 C 151.388 46.260,151.550 44.893,151.680 44.646 C 151.874 44.278,152.139 43.058,152.342 41.596 C 152.435 40.928,152.660 39.977,152.842 39.483 C 153.024 38.988,153.326 37.840,153.512 36.931 C 153.698 36.022,153.913 35.160,153.989 35.014 C 154.310 34.403,153.494 33.279,152.464 32.914 C 151.942 32.729,151.306 32.380,151.049 32.139 C 150.073 31.220,149.319 30.833,148.508 30.833 C 147.621 30.833,144.416 31.250,143.417 31.495 C 141.603 31.940,140.833 31.668,140.833 30.582 C 140.833 29.908,141.416 26.438,141.571 26.186 C 141.930 25.605,142.387 20.420,142.162 19.482 C 141.854 18.196,140.164 17.399,138.750 17.874 M107.694 24.732 C 108.928 24.990,110.039 25.328,110.167 25.483 C 110.212 25.539,110.566 25.799,110.953 26.061 C 113.820 28.006,114.384 32.646,112.280 36.989 C 110.626 40.402,102.104 42.932,102.546 39.879 C 102.596 39.533,102.788 38.313,102.974 37.167 C 103.159 36.021,103.434 34.033,103.586 32.750 C 103.738 31.467,103.929 30.192,104.011 29.917 C 104.093 29.642,104.274 28.592,104.413 27.583 C 104.840 24.486,105.166 24.203,107.694 24.732 M366.667 28.097 C 365.194 29.001,362.500 32.426,362.500 33.394 C 362.500 33.501,362.317 33.859,362.093 34.189 C 361.869 34.518,361.530 35.267,361.339 35.852 C 361.149 36.438,360.890 37.104,360.763 37.333 C 360.637 37.563,360.378 38.462,360.187 39.333 C 359.996 40.204,359.697 41.479,359.522 42.167 C 359.347 42.854,359.073 44.317,358.913 45.417 C 358.754 46.517,358.521 47.904,358.398 48.500 C 358.260 49.161,358.171 50.700,358.170 52.449 C 358.166 55.913,357.998 56.405,356.754 56.591 C 355.764 56.740,355.172 56.426,354.708 55.506 C 354.060 54.220,354.285 47.518,355.075 44.583 C 355.199 44.125,355.429 43.000,355.587 42.083 C 355.745 41.167,356.048 39.667,356.262 38.750 C 356.475 37.833,356.804 36.071,356.992 34.833 C 357.181 33.596,357.404 32.297,357.486 31.946 C 358.235 28.780,352.723 26.807,351.453 29.787 C 351.306 30.133,350.918 31.039,350.593 31.800 C 350.267 32.560,350.000 33.273,350.000 33.383 C 350.000 33.493,349.787 34.033,349.528 34.583 C 349.268 35.133,349.005 35.842,348.942 36.159 C 348.879 36.475,348.605 37.192,348.333 37.752 C 348.060 38.311,347.763 39.157,347.673 39.632 C 347.583 40.106,347.366 40.777,347.190 41.122 C 347.014 41.467,346.700 42.444,346.492 43.292 C 346.079 44.978,345.938 45.125,345.575 44.255 C 345.210 43.382,345.311 40.577,345.898 35.319 C 346.117 33.348,345.946 32.594,345.149 32.035 C 342.496 30.175,340.810 30.959,339.770 34.538 C 339.617 35.064,339.348 35.739,339.171 36.038 C 338.995 36.338,338.742 37.000,338.610 37.508 C 338.477 38.017,338.211 38.692,338.019 39.008 C 337.826 39.325,337.582 40.020,337.477 40.554 C 337.371 41.088,337.109 41.785,336.893 42.102 C 336.677 42.420,336.380 43.221,336.233 43.882 C 336.085 44.543,335.903 45.149,335.827 45.230 C 335.437 45.647,335.423 42.100,335.812 41.373 C 335.907 41.195,336.139 39.999,336.326 38.715 C 336.514 37.431,336.855 35.623,337.084 34.698 C 337.559 32.776,337.623 31.250,337.250 30.717 C 336.557 29.728,334.712 29.272,333.804 29.867 C 333.375 30.147,333.322 30.284,332.429 33.417 C 332.170 34.323,331.814 36.154,331.488 38.250 C 331.374 38.983,331.176 39.883,331.048 40.250 C 330.921 40.617,330.746 41.929,330.661 43.167 C 330.575 44.404,330.417 46.654,330.311 48.167 C 329.992 52.670,329.956 54.502,330.163 55.575 C 330.744 58.588,330.891 59.114,331.302 59.667 C 332.472 61.238,334.248 61.802,335.212 60.909 C 336.011 60.167,336.124 59.822,336.331 57.500 C 336.441 56.262,336.751 54.275,337.019 53.083 C 337.287 51.892,337.589 50.542,337.690 50.083 C 337.791 49.625,338.006 48.913,338.169 48.500 C 338.332 48.087,338.595 47.238,338.755 46.611 C 338.914 45.985,339.211 45.273,339.415 45.028 C 339.618 44.783,339.880 44.283,339.996 43.917 C 340.626 41.926,340.747 43.268,340.503 49.557 C 340.246 56.192,340.415 59.528,341.106 61.422 C 341.541 62.616,343.247 63.241,344.527 62.674 C 345.572 62.212,345.607 62.140,345.725 60.250 C 345.782 59.333,345.981 57.758,346.167 56.750 C 346.353 55.742,346.582 54.330,346.676 53.612 C 346.770 52.894,347.020 51.732,347.232 51.029 C 347.444 50.325,347.710 49.265,347.823 48.673 C 347.936 48.080,348.202 47.293,348.415 46.923 C 348.629 46.553,348.925 45.763,349.075 45.168 C 349.384 43.940,349.485 43.784,349.835 44.002 C 350.161 44.205,350.114 46.757,349.730 49.663 C 349.049 54.832,350.120 59.185,352.382 60.434 C 353.939 61.293,357.198 60.917,358.152 59.768 C 358.532 59.309,359.582 59.419,359.982 59.958 C 361.165 61.555,361.697 62.105,362.707 62.777 C 366.325 65.182,370.243 64.314,373.313 60.426 C 373.812 59.794,374.781 57.856,375.151 56.750 C 375.366 56.108,375.656 55.360,375.795 55.086 C 376.096 54.497,376.285 49.657,376.049 48.587 C 375.718 47.080,373.961 47.469,373.770 49.092 C 373.368 52.513,371.075 56.433,368.180 58.647 C 367.650 59.052,367.488 59.083,365.895 59.083 L 364.180 59.083 363.340 58.256 C 362.878 57.801,362.500 57.330,362.500 57.208 C 362.500 57.086,362.337 56.483,362.138 55.868 C 361.744 54.648,361.775 53.978,362.416 49.917 C 362.741 47.861,362.919 47.627,363.704 48.226 C 366.000 49.978,369.108 49.152,370.567 46.405 C 370.807 45.953,371.152 45.322,371.335 45.003 C 371.517 44.683,371.667 44.293,371.667 44.136 C 371.667 43.979,371.888 43.228,372.158 42.467 C 372.896 40.388,373.225 35.404,372.813 32.548 C 372.284 28.885,369.118 26.592,366.667 28.097 M318.660 28.641 C 318.240 28.781,316.552 30.601,316.075 31.429 C 315.815 31.880,315.438 32.475,315.238 32.750 C 315.038 33.025,314.782 33.550,314.669 33.917 C 314.555 34.283,314.362 34.744,314.239 34.941 C 313.999 35.325,313.337 37.474,312.836 39.500 C 312.666 40.188,312.290 42.250,312.001 44.083 C 311.436 47.660,311.061 49.385,310.734 49.917 C 310.621 50.100,310.417 50.631,310.282 51.097 C 309.764 52.871,308.172 55.340,306.672 56.694 C 303.368 59.676,300.275 58.885,299.226 54.789 C 298.510 51.995,299.565 41.269,300.788 38.913 C 300.882 38.732,301.094 38.148,301.259 37.616 C 301.425 37.084,301.623 36.611,301.699 36.563 C 301.776 36.516,301.997 36.164,302.190 35.780 C 303.030 34.120,304.732 33.285,305.379 34.216 C 305.876 34.930,305.118 38.367,304.050 40.249 C 303.133 41.864,304.385 44.071,306.219 44.071 C 307.085 44.071,307.724 43.740,308.761 42.752 C 310.635 40.968,311.148 34.696,309.593 32.583 C 307.403 29.608,303.615 29.054,300.694 31.282 C 299.666 32.066,297.945 34.053,297.743 34.689 C 297.678 34.893,297.409 35.358,297.146 35.722 C 296.882 36.086,296.666 36.466,296.665 36.567 C 296.664 36.668,296.469 37.162,296.231 37.667 C 294.071 42.250,293.308 52.801,294.918 55.833 C 295.040 56.063,295.260 56.574,295.406 56.970 C 296.062 58.739,298.027 60.700,300.167 61.722 L 301.583 62.398 303.917 62.398 C 306.722 62.397,308.704 61.614,310.147 59.937 C 310.295 59.765,310.660 59.396,310.958 59.118 C 311.256 58.841,311.500 58.531,311.500 58.432 C 311.500 58.171,313.011 56.654,313.171 56.753 C 313.245 56.799,313.661 57.342,314.095 57.960 C 319.062 65.038,326.549 60.878,328.570 49.917 C 328.722 49.092,329.050 48.004,329.298 47.500 L 329.750 46.583 329.750 41.333 C 329.750 35.602,329.667 34.873,328.819 33.164 C 328.552 32.626,328.333 32.106,328.333 32.009 C 328.333 31.913,327.887 31.387,327.342 30.842 C 326.102 29.602,325.554 29.427,322.889 29.421 C 321.095 29.417,320.807 29.376,320.388 29.067 C 319.906 28.710,319.070 28.504,318.660 28.641 M206.417 30.257 C 205.574 30.676,203.894 32.327,203.481 33.142 C 203.358 33.385,203.085 33.817,202.876 34.102 C 202.667 34.387,202.373 34.987,202.224 35.435 C 202.075 35.883,201.886 36.336,201.804 36.441 C 201.618 36.678,200.000 41.584,200.000 41.909 C 200.000 42.039,199.709 42.483,199.352 42.895 C 198.706 43.642,198.704 43.646,198.582 45.530 C 198.514 46.568,198.391 47.596,198.308 47.815 C 198.225 48.034,198.012 49.197,197.835 50.398 C 197.646 51.679,197.338 53.013,197.090 53.622 C 196.857 54.193,196.667 54.764,196.667 54.892 C 196.667 55.180,195.057 57.667,194.871 57.667 C 194.797 57.667,194.460 57.927,194.122 58.246 C 193.342 58.982,192.955 59.084,190.944 59.082 L 189.305 59.082 188.657 58.332 C 187.658 57.175,187.446 56.339,187.544 53.940 C 187.676 50.744,187.991 50.405,189.917 51.384 C 191.776 52.330,194.774 51.173,195.666 49.167 C 195.768 48.938,196.030 48.413,196.249 48.000 C 196.468 47.587,196.651 47.097,196.657 46.909 C 196.662 46.722,196.871 45.897,197.121 45.076 C 197.563 43.626,197.576 43.466,197.580 39.500 L 197.583 35.417 197.099 34.333 C 195.649 31.088,192.536 30.586,190.015 33.191 C 189.296 33.935,187.500 36.466,187.500 36.737 C 187.500 36.785,187.301 37.245,187.057 37.760 C 186.258 39.447,185.172 42.747,185.169 43.500 C 185.167 43.729,184.947 44.380,184.680 44.945 C 183.889 46.616,183.539 52.968,184.065 56.083 C 184.293 57.429,185.290 59.705,186.065 60.644 C 186.754 61.480,187.605 62.255,188.173 62.564 C 188.490 62.736,188.825 62.965,188.917 63.072 C 189.687 63.968,195.167 63.926,195.167 63.024 C 195.167 62.948,195.431 62.743,195.755 62.569 C 196.439 62.201,197.243 61.279,197.833 60.188 C 198.498 58.958,199.340 59.038,200.140 60.407 C 203.132 65.527,209.506 65.572,212.856 60.496 C 213.005 60.269,213.393 59.943,213.718 59.772 L 214.307 59.462 214.792 59.939 C 218.833 63.915,224.322 63.509,227.065 59.031 C 227.932 57.616,228.316 53.524,227.768 51.533 C 227.549 50.736,227.322 49.810,227.264 49.475 C 227.205 49.141,227.009 48.677,226.826 48.445 C 226.643 48.213,226.364 47.737,226.204 47.387 C 225.561 45.974,222.829 42.656,221.853 42.102 C 221.674 42.000,221.181 41.692,220.758 41.417 C 220.334 41.142,219.757 40.767,219.475 40.583 C 219.193 40.400,218.863 40.009,218.742 39.715 L 218.522 39.180 219.469 38.649 C 222.523 36.937,222.887 36.868,224.444 37.706 C 225.199 38.112,225.678 38.283,225.747 38.172 C 225.807 38.075,226.167 37.837,226.547 37.643 C 231.016 35.363,231.058 29.530,226.594 31.091 C 225.947 31.318,224.929 31.660,224.333 31.852 C 223.737 32.043,223.137 32.298,223.000 32.417 C 222.862 32.537,222.354 32.751,221.869 32.893 C 221.385 33.036,220.764 33.312,220.490 33.507 C 220.215 33.703,219.739 33.932,219.432 34.017 C 219.124 34.102,218.598 34.358,218.262 34.586 C 217.927 34.814,217.577 35.000,217.486 35.000 C 217.219 35.000,215.983 35.669,215.612 36.015 C 215.424 36.190,215.216 36.333,215.149 36.333 C 215.083 36.333,214.782 36.644,214.481 37.024 C 213.243 38.587,214.396 42.167,216.136 42.167 C 216.294 42.167,216.688 42.347,217.013 42.568 C 217.338 42.789,217.862 43.078,218.177 43.211 C 218.823 43.483,221.317 45.507,221.561 45.957 C 221.648 46.118,221.895 46.428,222.109 46.646 C 224.076 48.652,224.642 53.645,223.173 56.037 C 221.095 59.421,215.570 59.056,215.481 55.529 C 215.466 54.914,216.196 52.539,216.593 51.917 C 217.260 50.868,217.514 48.775,217.066 48.016 C 215.252 44.946,211.956 47.839,211.577 52.833 C 211.425 54.836,211.355 55.097,210.716 56.031 C 209.175 58.284,208.055 59.122,205.833 59.682 C 204.822 59.937,202.953 59.016,202.463 58.021 C 201.428 55.920,202.170 48.403,203.301 49.534 C 203.835 50.068,206.176 50.324,207.404 49.983 C 208.840 49.584,210.801 46.912,211.315 44.653 C 212.645 38.811,212.611 34.540,211.214 31.917 C 210.312 30.222,208.055 29.441,206.417 30.257 M279.412 31.992 C 279.952 33.036,279.602 37.998,278.818 40.404 C 278.551 41.222,278.333 42.032,278.333 42.205 C 278.333 42.377,278.033 43.016,277.667 43.624 C 277.300 44.232,277.000 44.787,277.000 44.858 C 277.000 44.929,276.689 45.071,276.309 45.173 C 274.537 45.650,274.444 43.610,275.990 38.207 C 276.180 37.542,276.453 36.679,276.596 36.291 C 276.740 35.902,276.974 35.208,277.117 34.750 C 277.532 33.420,277.706 32.985,277.907 32.777 C 278.010 32.671,278.266 32.340,278.475 32.042 C 278.945 31.374,279.089 31.366,279.412 31.992 M368.772 32.777 C 369.062 33.933,368.170 40.909,367.644 41.596 C 367.569 41.695,367.358 42.258,367.176 42.848 C 366.189 46.044,363.424 46.004,363.979 42.801 C 364.225 41.377,364.825 39.014,365.282 37.670 C 365.514 36.984,365.813 36.009,365.944 35.503 C 366.076 34.997,366.283 34.432,366.404 34.246 C 366.526 34.060,366.797 33.498,367.008 32.996 C 367.570 31.653,367.621 31.611,368.185 32.013 C 368.449 32.201,368.714 32.545,368.772 32.777 M325.040 32.920 C 325.380 33.151,325.732 33.477,325.821 33.644 C 326.337 34.607,326.129 41.005,325.505 43.415 C 325.315 44.148,325.095 45.311,325.016 45.999 C 324.937 46.687,324.711 47.663,324.513 48.167 C 324.316 48.671,324.085 49.433,324.001 49.861 C 323.840 50.675,322.864 53.353,322.379 54.308 C 321.040 56.949,318.232 57.683,316.869 55.750 C 315.256 53.462,315.228 45.936,316.830 45.584 C 317.524 45.432,317.803 45.021,318.088 43.738 C 318.229 43.103,318.525 41.983,318.747 41.250 C 318.969 40.517,319.239 39.617,319.347 39.250 C 319.608 38.361,321.142 35.228,321.435 34.985 C 321.562 34.879,321.667 34.706,321.667 34.600 C 321.667 34.494,321.985 34.047,322.375 33.606 C 323.010 32.888,323.314 32.719,324.336 32.517 C 324.384 32.508,324.701 32.689,325.040 32.920 M208.016 34.297 C 208.381 35.405,207.893 41.289,207.354 42.277 C 207.262 42.446,207.034 43.114,206.847 43.762 C 205.897 47.065,203.194 47.713,203.566 44.550 C 203.627 44.033,203.818 43.289,203.991 42.897 C 204.165 42.505,204.436 41.603,204.594 40.892 C 204.752 40.181,205.016 39.296,205.179 38.925 C 205.343 38.554,205.625 37.725,205.806 37.083 C 206.123 35.956,206.700 34.496,207.143 33.698 C 207.413 33.211,207.729 33.428,208.016 34.297 M126.438 34.426 C 127.047 35.355,126.337 41.517,125.327 44.071 C 124.338 46.570,122.694 47.245,122.218 45.348 C 121.972 44.368,123.468 38.461,124.522 36.250 C 124.784 35.700,125.107 34.969,125.241 34.625 C 125.532 33.874,126.023 33.792,126.438 34.426 M177.092 34.461 C 178.238 35.260,178.459 36.856,177.846 39.899 C 177.507 41.579,177.530 41.828,178.081 42.500 C 178.704 43.260,178.588 46.031,177.843 48.148 C 177.662 48.662,177.432 49.458,177.331 49.917 C 177.132 50.820,175.955 53.402,175.564 53.793 C 175.431 53.926,175.179 54.315,175.004 54.659 C 174.829 55.002,174.513 55.398,174.301 55.539 C 174.090 55.680,173.736 55.954,173.516 56.147 C 171.892 57.577,169.830 55.038,169.834 51.615 C 169.836 49.927,170.786 44.143,171.235 43.083 C 171.468 42.533,171.662 41.896,171.667 41.667 C 171.671 41.438,171.865 40.800,172.098 40.250 C 172.330 39.700,172.632 38.893,172.767 38.456 C 172.903 38.020,173.236 37.334,173.507 36.932 C 173.778 36.530,174.000 36.131,174.000 36.044 C 174.000 35.820,175.533 34.554,175.924 34.455 C 176.435 34.325,176.901 34.327,177.092 34.461 M193.203 35.792 C 193.795 36.470,193.851 36.785,193.677 38.459 C 193.585 39.352,193.431 40.827,193.336 41.736 C 193.157 43.453,192.951 44.398,192.572 45.250 C 192.450 45.525,192.222 46.110,192.066 46.550 C 191.839 47.187,191.664 47.400,191.204 47.592 C 189.979 48.104,189.413 47.591,189.555 46.099 C 189.747 44.066,190.018 42.741,190.421 41.860 C 190.648 41.365,190.833 40.825,190.833 40.661 C 190.833 40.354,191.146 39.340,191.912 37.167 C 192.154 36.479,192.383 35.823,192.421 35.708 C 192.519 35.410,192.906 35.451,193.203 35.792 M140.103 44.408 C 142.561 50.436,140.988 63.928,137.701 65.016 C 136.559 65.394,136.261 64.642,136.421 61.784 C 136.524 59.960,137.138 54.348,137.256 54.157 C 137.288 54.105,137.398 52.948,137.500 51.586 C 137.601 50.225,137.793 48.580,137.926 47.930 C 138.059 47.281,138.311 45.989,138.486 45.058 C 139.025 42.190,139.175 42.130,140.103 44.408 " stroke="none" fill="#74b0dd" fill-rule="evenodd"></path><path id="path1" d="M0.000 46.000 L 0.000 92.000 200.000 92.000 L 400.000 92.000 400.000 46.000 L 400.000 0.000 200.000 0.000 L 0.000 0.000 0.000 46.000 M54.833 14.157 C 55.337 14.362,56.285 14.633,56.939 14.759 C 57.593 14.884,58.545 15.178,59.054 15.410 C 59.562 15.643,60.093 15.833,60.232 15.833 C 60.372 15.833,61.122 16.169,61.900 16.579 C 66.613 19.065,69.953 22.131,73.113 26.871 C 74.223 28.536,75.781 32.251,76.242 34.333 C 76.394 35.021,76.590 35.898,76.676 36.282 C 76.763 36.666,76.833 37.022,76.833 37.072 C 76.833 37.121,76.571 37.272,76.250 37.406 C 75.472 37.731,74.920 37.534,73.379 36.385 C 72.717 35.891,71.892 35.358,71.546 35.199 C 71.200 35.041,70.721 34.779,70.482 34.618 C 70.243 34.457,69.568 34.222,68.982 34.094 C 68.396 33.967,67.467 33.701,66.917 33.503 C 66.367 33.305,65.183 33.037,64.287 32.908 C 63.391 32.779,62.515 32.597,62.340 32.503 C 62.165 32.410,61.723 32.333,61.357 32.333 C 60.206 32.333,60.002 33.754,61.070 34.326 C 61.307 34.453,61.500 34.616,61.500 34.690 C 61.500 34.764,62.044 34.979,62.708 35.169 C 65.383 35.932,66.271 36.720,65.210 37.388 C 63.550 38.434,63.586 38.428,58.167 38.670 C 53.577 38.876,53.095 38.958,52.429 39.654 C 51.335 40.796,52.317 41.166,56.453 41.169 C 60.944 41.171,61.701 41.339,59.746 41.899 C 59.149 42.070,58.614 42.283,58.559 42.372 C 58.367 42.683,57.306 43.013,55.950 43.182 C 54.618 43.348,51.713 44.344,51.473 44.717 C 51.338 44.927,51.614 45.696,51.885 45.869 C 52.193 46.065,53.203 46.023,54.447 45.762 C 55.072 45.631,56.333 45.472,57.250 45.409 C 58.167 45.346,59.142 45.197,59.417 45.079 C 60.552 44.592,61.696 44.605,61.047 45.098 C 60.883 45.221,60.624 45.325,60.470 45.328 C 60.315 45.331,60.141 45.484,60.083 45.668 C 59.956 46.069,59.380 46.379,58.250 46.655 C 57.792 46.767,57.154 46.998,56.833 47.168 C 56.512 47.338,55.852 47.602,55.364 47.755 C 54.741 47.951,54.436 48.147,54.333 48.417 C 54.253 48.628,54.108 48.850,54.010 48.910 C 53.913 48.970,53.833 49.194,53.833 49.406 C 53.833 50.201,56.256 50.222,57.756 49.441 C 58.034 49.297,58.741 49.055,59.327 48.905 C 59.913 48.755,60.660 48.455,60.988 48.239 C 61.796 47.705,63.329 47.520,63.719 47.909 C 64.128 48.319,64.076 48.448,63.305 48.935 C 62.922 49.176,62.529 49.440,62.430 49.520 C 62.331 49.601,61.575 50.111,60.750 50.655 C 59.332 51.589,58.359 52.637,58.579 52.994 C 58.918 53.541,60.414 53.349,61.198 52.658 C 61.502 52.391,61.832 52.171,61.932 52.169 C 62.033 52.168,62.333 51.979,62.599 51.750 C 62.865 51.521,63.170 51.334,63.276 51.334 C 63.382 51.333,63.945 51.123,64.526 50.866 C 65.108 50.609,66.071 50.264,66.667 50.099 C 67.262 49.935,68.327 49.583,69.033 49.317 C 69.739 49.051,70.483 48.833,70.686 48.833 C 70.890 48.833,71.446 48.614,71.922 48.345 C 72.667 47.924,74.561 47.369,75.561 47.278 C 76.665 47.178,76.636 48.882,75.483 51.812 C 75.218 52.488,75.000 53.143,75.000 53.268 C 75.000 53.517,73.609 56.098,73.258 56.500 C 73.138 56.637,72.908 57.012,72.747 57.333 C 72.585 57.654,72.398 57.954,72.331 58.000 C 72.264 58.046,72.065 58.321,71.890 58.611 C 70.215 61.381,65.698 65.254,62.167 66.948 C 61.479 67.278,60.804 67.640,60.667 67.752 C 60.529 67.865,60.004 68.087,59.500 68.245 C 58.996 68.404,58.283 68.670,57.917 68.836 C 57.550 69.003,56.800 69.226,56.250 69.332 C 55.700 69.439,54.831 69.633,54.319 69.764 C 52.100 70.331,46.783 70.328,44.333 69.758 C 41.198 69.029,38.534 68.177,37.983 67.726 C 37.855 67.621,37.262 67.305,36.667 67.023 C 36.071 66.741,35.435 66.414,35.254 66.297 C 35.073 66.179,34.322 65.697,33.586 65.224 C 32.850 64.752,32.105 64.208,31.931 64.016 C 31.757 63.824,31.546 63.667,31.462 63.667 C 31.196 63.667,28.422 60.758,27.330 59.333 C 27.014 58.921,26.650 58.474,26.521 58.340 C 26.392 58.206,26.189 57.863,26.070 57.577 C 25.950 57.291,25.739 56.963,25.600 56.847 C 24.047 55.558,23.782 52.818,25.190 52.606 C 28.545 52.099,38.336 52.333,39.266 52.943 C 39.699 53.226,41.613 53.287,41.875 53.025 C 42.602 52.298,41.549 51.334,39.578 50.921 C 39.013 50.803,38.258 50.613,37.900 50.498 C 34.247 49.327,34.802 48.998,40.683 48.852 C 45.158 48.741,45.174 48.737,45.506 47.733 C 45.878 46.605,44.890 46.336,40.350 46.331 C 36.982 46.327,36.582 46.024,39.083 45.371 C 39.450 45.275,40.074 45.076,40.469 44.929 C 40.865 44.781,42.160 44.553,43.347 44.421 C 45.952 44.132,46.362 43.967,46.572 43.120 C 46.835 42.059,45.913 41.708,43.617 41.996 C 42.870 42.090,41.769 42.167,41.170 42.167 C 40.571 42.167,39.819 42.248,39.499 42.348 C 38.394 42.693,36.947 42.969,36.682 42.885 C 36.536 42.839,36.304 42.766,36.167 42.722 C 35.833 42.616,36.598 42.181,37.133 42.173 C 37.344 42.169,37.691 41.978,37.905 41.747 C 38.146 41.487,38.792 41.174,39.605 40.924 C 40.942 40.512,42.756 39.825,43.492 39.453 C 44.221 39.084,44.605 38.226,44.228 37.807 C 43.762 37.288,41.431 37.438,40.090 38.073 C 39.566 38.321,38.675 38.623,38.111 38.745 C 37.546 38.867,36.733 39.125,36.305 39.318 C 35.878 39.512,35.128 39.752,34.639 39.852 C 34.150 39.952,33.450 40.098,33.083 40.176 C 31.551 40.504,30.595 40.258,30.288 39.457 C 30.170 39.147,31.153 38.088,32.803 36.750 C 33.575 36.124,34.167 35.265,34.167 34.770 C 34.167 33.932,32.566 33.813,31.786 34.593 C 31.566 34.813,31.093 35.126,30.735 35.290 C 30.376 35.453,29.446 36.007,28.667 36.521 C 27.887 37.034,27.066 37.551,26.841 37.668 C 25.951 38.133,23.484 40.880,22.830 42.135 C 22.630 42.520,22.402 42.875,22.323 42.923 C 21.489 43.438,21.383 37.225,22.189 35.083 C 22.431 34.442,22.717 33.542,22.824 33.083 C 23.286 31.109,24.769 27.944,26.084 26.126 C 26.499 25.552,27.024 24.805,27.251 24.464 C 27.744 23.724,30.815 20.602,31.733 19.908 C 32.090 19.638,32.652 19.189,32.983 18.911 C 34.168 17.913,37.348 16.137,38.499 15.831 C 38.911 15.722,39.529 15.489,39.872 15.313 C 40.215 15.138,41.041 14.890,41.707 14.762 C 42.372 14.633,43.292 14.396,43.750 14.234 C 45.745 13.530,53.166 13.478,54.833 14.157 M293.763 16.100 C 295.627 16.985,295.873 18.541,294.856 23.000 C 294.762 23.412,294.561 24.800,294.410 26.083 C 294.258 27.367,293.954 29.358,293.734 30.509 C 293.514 31.659,293.333 32.921,293.333 33.312 C 293.333 34.284,292.831 37.678,292.631 38.060 C 292.542 38.230,292.292 40.125,292.076 42.271 C 291.860 44.416,291.640 46.242,291.587 46.327 C 291.434 46.575,291.027 51.434,290.827 55.417 C 290.565 60.638,290.534 60.825,289.873 61.270 C 289.152 61.755,288.035 61.485,286.747 60.512 C 285.371 59.473,285.004 59.540,283.665 61.072 C 283.070 61.753,282.506 62.316,282.412 62.322 C 282.318 62.328,282.014 62.540,281.736 62.792 C 279.987 64.378,275.505 64.493,273.826 62.994 C 273.522 62.722,273.224 62.500,273.163 62.500 C 272.715 62.500,270.935 60.214,270.438 59.000 C 270.269 58.587,270.038 58.063,269.924 57.833 C 269.004 55.980,268.965 47.060,269.867 44.667 C 269.953 44.438,270.205 43.313,270.427 42.167 C 270.648 41.021,270.983 39.633,271.172 39.083 C 271.360 38.533,271.585 37.768,271.673 37.382 C 271.760 36.996,272.010 36.283,272.229 35.798 C 272.447 35.313,272.721 34.619,272.837 34.256 C 272.954 33.893,273.263 33.301,273.525 32.940 C 273.786 32.579,274.000 32.227,274.000 32.158 C 274.000 31.587,276.212 28.938,277.291 28.219 C 280.374 26.162,283.718 29.374,283.956 34.623 C 284.038 36.411,283.794 39.309,283.497 40.092 C 283.421 40.291,283.240 41.143,283.095 41.985 C 282.862 43.336,282.473 44.398,281.452 46.475 C 280.189 49.044,276.705 50.002,274.880 48.283 L 274.343 47.777 273.761 48.393 C 273.003 49.197,272.931 49.630,272.923 53.419 L 272.917 56.589 273.700 57.687 C 274.972 59.472,277.541 59.781,279.368 58.369 C 280.725 57.321,282.357 55.347,283.012 53.963 C 283.197 53.571,283.486 52.987,283.654 52.667 C 284.014 51.977,284.667 49.478,284.667 48.785 C 284.667 48.330,285.471 47.333,285.838 47.333 C 286.107 47.333,286.330 46.211,286.494 44.031 C 286.585 42.810,286.699 41.749,286.746 41.672 C 286.930 41.375,287.344 38.827,287.506 37.000 C 287.599 35.946,287.861 34.349,288.088 33.452 C 288.314 32.554,288.500 31.565,288.500 31.252 C 288.500 30.578,289.095 26.500,289.315 25.667 C 289.399 25.346,289.561 24.221,289.675 23.167 C 289.788 22.113,290.061 20.387,290.281 19.333 C 290.501 18.279,290.725 17.192,290.780 16.917 C 290.996 15.828,292.386 15.447,293.763 16.100 M245.753 17.259 C 246.483 17.616,247.044 18.510,246.913 19.109 C 246.870 19.307,246.757 20.582,246.662 21.942 C 246.567 23.303,246.370 25.317,246.225 26.417 C 246.080 27.517,245.899 28.904,245.823 29.500 C 245.746 30.096,245.680 33.808,245.676 37.750 L 245.669 44.917 246.324 48.148 C 247.163 52.281,247.298 52.410,247.833 49.583 C 247.938 49.033,248.129 48.133,248.260 47.583 C 248.390 47.033,248.646 45.701,248.828 44.623 C 249.010 43.546,249.312 42.200,249.498 41.633 C 249.684 41.066,249.907 40.167,249.992 39.634 C 250.078 39.102,250.331 38.235,250.555 37.708 C 250.778 37.181,251.092 36.150,251.251 35.417 C 251.411 34.683,251.635 33.896,251.749 33.667 C 251.862 33.438,252.047 32.837,252.159 32.333 C 252.395 31.274,253.224 28.502,253.705 27.167 C 254.745 24.277,255.000 23.658,255.525 22.750 L 256.104 21.750 257.177 21.764 C 259.063 21.789,260.757 22.893,260.599 23.994 C 260.553 24.318,260.434 25.521,260.336 26.667 C 260.237 27.813,260.027 29.575,259.870 30.583 C 259.473 33.125,259.471 39.327,259.867 42.000 C 260.024 43.054,260.235 44.929,260.337 46.167 C 260.553 48.786,260.742 49.643,261.134 49.791 C 261.289 49.850,261.528 50.008,261.664 50.142 C 261.967 50.443,262.286 49.521,262.434 47.917 C 262.485 47.367,262.742 45.979,263.005 44.833 C 263.269 43.688,263.630 42.037,263.808 41.167 C 263.985 40.296,264.252 39.261,264.400 38.868 C 264.549 38.474,264.737 37.686,264.819 37.118 C 264.901 36.549,265.163 35.508,265.401 34.804 C 265.639 34.100,265.834 33.350,265.835 33.137 C 265.837 32.795,266.054 31.867,266.666 29.583 C 266.764 29.217,267.024 28.204,267.243 27.333 C 268.043 24.149,268.459 22.733,268.787 22.082 C 268.971 21.716,269.173 21.154,269.235 20.833 C 269.298 20.512,269.488 19.987,269.658 19.667 C 269.828 19.346,270.157 18.692,270.388 18.215 C 270.711 17.549,270.919 17.322,271.280 17.242 C 271.538 17.185,271.836 17.113,271.940 17.082 C 272.344 16.960,273.466 17.445,274.226 18.071 C 275.126 18.810,275.138 18.959,274.410 20.390 C 274.185 20.834,274.000 21.361,274.000 21.562 C 274.000 21.762,273.786 22.338,273.525 22.841 C 273.264 23.344,272.953 24.167,272.834 24.669 C 272.715 25.172,272.440 26.050,272.222 26.620 C 272.004 27.191,271.758 28.016,271.673 28.454 C 271.589 28.892,271.338 29.813,271.116 30.500 C 270.894 31.188,270.580 32.350,270.419 33.083 C 270.257 33.817,270.030 34.604,269.914 34.833 C 269.798 35.063,269.549 35.962,269.362 36.833 C 269.174 37.704,268.875 38.829,268.697 39.333 C 268.519 39.837,268.248 40.925,268.095 41.750 C 267.941 42.575,267.710 43.625,267.580 44.083 C 267.451 44.542,267.186 45.928,266.991 47.164 C 266.797 48.400,266.606 49.463,266.568 49.525 C 266.452 49.712,265.837 53.380,265.835 53.893 C 265.834 54.155,265.643 55.159,265.411 56.125 C 265.178 57.090,264.917 58.617,264.832 59.518 C 264.654 61.385,264.593 61.699,264.140 63.083 C 263.611 64.697,263.536 64.755,261.980 64.722 C 259.632 64.674,258.654 63.545,257.993 60.117 C 257.812 59.182,257.553 57.854,257.418 57.167 C 257.060 55.350,256.850 53.825,256.674 51.750 C 256.588 50.742,256.371 48.942,256.191 47.750 C 256.011 46.558,255.813 44.608,255.753 43.417 C 255.589 40.203,255.216 36.315,255.056 36.159 C 254.477 35.593,253.954 35.909,253.664 37.000 C 253.109 39.092,252.354 42.429,252.156 43.667 C 252.045 44.354,251.864 45.179,251.752 45.500 C 251.640 45.821,251.416 46.983,251.254 48.083 C 251.092 49.183,250.822 50.504,250.655 51.019 C 250.487 51.534,250.267 52.621,250.165 53.436 C 250.064 54.250,249.794 55.910,249.566 57.125 C 249.337 58.339,249.107 59.956,249.053 60.718 C 248.902 62.851,247.822 63.445,245.900 62.451 C 244.189 61.567,242.458 56.199,241.835 49.847 C 241.741 48.893,241.596 47.843,241.513 47.514 C 240.642 44.094,240.689 27.438,241.582 22.667 C 241.711 21.979,241.895 20.639,241.992 19.688 C 242.293 16.726,243.312 16.068,245.753 17.259 M140.833 18.037 C 142.150 18.425,142.446 19.324,142.169 22.093 C 141.966 24.120,141.693 25.988,141.571 26.186 C 141.416 26.438,140.833 29.908,140.833 30.582 C 140.833 31.668,141.603 31.940,143.417 31.495 C 144.416 31.250,147.621 30.833,148.508 30.833 C 149.319 30.833,150.073 31.220,151.049 32.139 C 151.306 32.380,151.942 32.729,152.464 32.914 C 153.494 33.279,154.310 34.403,153.989 35.014 C 153.913 35.160,153.698 36.022,153.512 36.931 C 153.326 37.840,153.024 38.988,152.842 39.483 C 152.660 39.977,152.435 40.928,152.342 41.596 C 152.139 43.058,151.874 44.278,151.680 44.646 C 151.550 44.893,151.388 46.260,150.827 51.850 C 150.532 54.786,151.363 56.064,152.259 54.052 C 152.389 53.760,152.684 53.244,152.914 52.904 C 153.145 52.565,153.333 52.184,153.333 52.059 C 153.333 51.934,153.525 51.438,153.759 50.958 C 153.994 50.477,154.368 49.567,154.590 48.937 C 154.813 48.307,155.058 47.707,155.135 47.604 C 155.212 47.501,155.407 46.929,155.569 46.333 C 155.732 45.737,156.043 44.762,156.261 44.167 C 156.479 43.571,156.782 42.558,156.936 41.917 C 157.089 41.275,157.307 40.600,157.420 40.417 C 157.533 40.233,157.752 39.408,157.907 38.583 C 158.062 37.758,158.296 36.671,158.426 36.167 C 158.557 35.662,158.783 34.566,158.929 33.729 C 159.206 32.138,159.278 32.033,160.295 31.748 C 160.913 31.575,162.328 32.149,163.052 32.866 L 163.711 33.518 163.594 35.217 C 163.530 36.152,163.414 37.217,163.336 37.583 C 162.742 40.399,162.500 41.765,162.500 42.299 C 162.500 42.640,162.311 43.593,162.080 44.418 C 161.044 48.119,160.945 54.363,161.908 55.250 C 164.002 57.178,166.080 54.937,165.550 51.323 C 165.227 49.122,165.731 43.489,166.403 41.786 C 166.627 41.216,166.936 40.311,167.089 39.775 C 167.241 39.239,167.584 38.362,167.850 37.826 C 168.116 37.291,168.333 36.805,168.333 36.747 C 168.333 36.431,170.748 33.119,171.052 33.017 C 171.161 32.981,171.492 32.740,171.789 32.483 C 175.318 29.419,181.833 30.479,181.833 34.117 C 181.833 34.826,182.163 35.408,182.817 35.855 C 184.161 36.773,184.181 36.877,183.659 40.128 C 183.471 41.295,183.210 43.675,183.079 45.417 C 182.817 48.890,182.690 49.955,182.495 50.333 C 182.425 50.471,182.205 51.783,182.007 53.250 C 181.809 54.717,181.471 56.592,181.254 57.417 C 181.038 58.242,180.786 59.375,180.695 59.936 C 180.603 60.497,180.376 61.290,180.190 61.698 C 180.004 62.107,179.723 62.961,179.566 63.596 C 179.408 64.230,179.142 65.011,178.973 65.331 C 178.805 65.650,178.667 65.986,178.667 66.078 C 178.667 67.230,175.689 71.428,174.638 71.757 C 174.425 71.824,174.077 72.014,173.866 72.179 C 172.368 73.349,165.859 71.512,164.666 69.582 C 164.476 69.275,164.235 68.995,164.131 68.960 C 164.017 68.922,163.937 68.458,163.929 67.789 C 163.901 65.268,166.623 64.118,167.990 66.073 C 168.497 66.798,170.867 69.000,171.141 69.000 C 171.718 69.000,174.000 66.584,174.000 65.973 C 174.000 65.903,174.225 65.490,174.500 65.056 C 174.775 64.623,175.000 64.169,175.000 64.047 C 175.000 63.926,175.199 63.512,175.442 63.126 C 176.701 61.132,177.548 56.991,176.396 58.463 C 176.165 58.759,175.875 59.000,175.751 59.000 C 175.627 59.000,175.302 59.189,175.028 59.419 C 173.513 60.693,171.156 60.642,169.241 59.292 C 168.834 59.004,168.500 58.715,168.500 58.650 C 168.500 58.389,166.993 57.000,166.710 57.000 C 166.544 57.000,166.006 57.456,165.515 58.013 C 165.025 58.571,164.427 59.110,164.187 59.212 C 163.947 59.314,163.615 59.511,163.449 59.650 C 163.058 59.977,160.983 59.998,160.598 59.679 C 160.451 59.556,160.087 59.326,159.790 59.167 C 158.683 58.573,158.003 57.117,157.578 54.434 L 157.476 53.785 157.137 54.351 C 156.951 54.662,156.654 55.074,156.477 55.267 C 156.300 55.460,155.976 56.110,155.758 56.712 C 154.442 60.339,152.212 61.453,149.713 59.732 C 146.779 57.711,145.037 53.425,145.893 50.334 C 146.196 49.237,146.667 46.253,146.667 45.424 C 146.667 45.098,146.883 44.139,147.148 43.291 C 147.413 42.444,147.725 41.225,147.841 40.583 C 147.956 39.942,148.185 39.154,148.348 38.833 C 148.792 37.963,149.112 36.214,148.891 35.866 C 148.564 35.350,144.579 35.702,141.083 36.557 C 139.855 36.857,140.144 38.256,141.789 39.970 C 141.905 40.091,142.000 40.259,142.000 40.342 C 142.000 40.425,142.259 40.898,142.575 41.392 C 142.891 41.886,143.201 42.506,143.263 42.770 C 143.326 43.034,143.544 43.625,143.749 44.083 C 144.863 46.577,144.851 55.472,143.729 58.478 C 143.512 59.062,143.333 59.667,143.333 59.822 C 143.333 59.977,143.082 60.624,142.776 61.260 C 142.469 61.896,142.119 62.679,141.998 63.000 C 141.877 63.321,141.687 63.696,141.575 63.833 C 141.464 63.971,141.203 64.421,140.997 64.833 C 140.791 65.246,140.575 65.621,140.518 65.667 C 140.461 65.712,140.201 66.036,139.941 66.386 C 138.923 67.751,137.152 69.278,136.333 69.497 C 133.374 70.290,131.842 68.384,131.836 63.900 C 131.834 62.296,131.636 61.000,131.393 61.000 C 131.352 61.000,130.853 61.380,130.284 61.844 C 129.715 62.308,129.006 62.884,128.708 63.123 C 128.049 63.653,126.025 64.337,125.000 64.378 C 123.349 64.443,119.807 62.696,119.167 61.501 C 118.926 61.049,117.779 61.048,117.041 61.499 C 115.731 62.297,115.355 62.189,114.158 60.664 C 113.567 59.912,112.952 59.143,112.792 58.956 C 112.631 58.769,112.500 58.559,112.500 58.490 C 112.500 58.421,112.256 58.065,111.958 57.699 C 111.660 57.332,111.042 56.561,110.583 55.984 C 110.125 55.408,109.634 54.819,109.492 54.676 C 109.349 54.533,109.101 54.205,108.939 53.947 C 108.777 53.689,108.532 53.351,108.396 53.197 C 108.259 53.043,107.779 52.429,107.329 51.833 C 106.426 50.638,106.040 50.155,105.006 48.917 C 101.857 45.149,101.672 45.177,101.172 49.480 C 100.995 51.003,100.776 52.475,100.686 52.750 C 100.339 53.811,100.128 56.227,100.242 57.835 C 100.357 59.454,100.171 61.171,99.796 61.950 C 98.971 63.664,94.379 62.244,94.909 60.439 C 94.966 60.243,95.195 58.471,95.417 56.500 C 95.639 54.529,95.937 52.506,96.078 52.004 C 96.219 51.501,96.416 50.264,96.516 49.254 C 96.615 48.243,96.847 46.667,97.030 45.750 C 97.214 44.833,97.441 43.446,97.536 42.667 C 97.708 41.238,98.022 39.035,98.661 34.750 C 98.853 33.467,99.195 31.467,99.422 30.307 C 99.878 27.971,99.941 26.796,99.624 26.533 C 99.364 26.318,98.273 26.935,97.875 27.522 C 97.728 27.739,97.395 28.163,97.137 28.464 C 96.878 28.765,96.667 29.148,96.667 29.315 C 96.667 30.352,95.197 30.817,94.235 30.083 C 93.935 29.854,93.634 29.667,93.568 29.667 C 93.376 29.667,92.482 28.622,92.321 28.208 C 92.143 27.750,92.292 27.330,93.052 26.149 C 93.748 25.069,95.727 23.000,96.065 23.000 C 96.117 23.000,96.717 22.739,97.398 22.420 C 98.080 22.101,99.000 21.755,99.444 21.650 C 100.611 21.376,100.707 21.308,101.167 20.431 C 102.069 18.711,104.644 18.711,105.732 20.432 C 106.222 21.206,106.197 21.192,107.879 21.574 C 108.499 21.715,109.490 22.056,110.080 22.332 C 110.670 22.608,111.224 22.833,111.311 22.833 C 111.397 22.833,111.783 23.096,112.167 23.417 C 112.551 23.738,112.918 24.000,112.984 24.000 C 113.227 24.000,115.734 26.567,116.275 27.370 C 118.589 30.809,118.573 36.570,116.240 40.000 C 115.681 40.822,114.413 42.167,114.198 42.167 C 114.123 42.167,113.847 42.392,113.583 42.667 C 113.320 42.942,113.047 43.167,112.977 43.167 C 112.907 43.167,112.417 43.427,111.889 43.746 C 111.360 44.064,110.550 44.404,110.089 44.500 C 108.425 44.848,108.161 45.560,109.220 46.845 C 109.603 47.310,110.072 47.892,110.261 48.137 C 110.450 48.383,110.928 48.921,111.322 49.333 C 111.717 49.746,112.478 50.683,113.014 51.417 C 115.015 54.157,115.241 54.379,115.886 54.243 C 116.675 54.077,116.674 54.078,116.836 51.386 C 117.021 48.288,117.293 45.980,117.588 45.000 C 117.712 44.587,117.969 43.482,118.159 42.542 C 118.348 41.603,118.645 40.516,118.818 40.126 C 118.991 39.736,119.261 38.967,119.418 38.417 C 119.574 37.867,119.797 37.304,119.912 37.167 C 120.027 37.029,120.259 36.542,120.428 36.083 C 120.597 35.625,120.945 34.890,121.201 34.451 C 121.457 34.012,121.671 33.599,121.676 33.534 C 121.720 32.984,123.697 30.897,124.649 30.395 C 126.004 29.681,126.466 29.690,127.986 30.458 L 129.221 31.083 130.027 32.643 L 130.833 34.202 130.833 35.994 C 130.833 38.433,130.549 41.752,130.246 42.847 C 130.108 43.344,129.847 44.307,129.664 44.988 C 129.481 45.668,129.230 46.343,129.106 46.488 C 128.981 46.632,128.670 47.115,128.413 47.560 C 127.051 49.926,124.343 50.932,122.668 49.694 C 121.001 48.462,120.598 49.301,120.590 54.027 L 120.583 57.470 121.083 58.168 C 121.525 58.785,121.871 59.049,122.839 59.504 C 122.979 59.570,123.344 59.679,123.648 59.746 C 124.194 59.866,124.390 59.810,126.198 59.019 C 128.243 58.124,130.689 53.997,131.395 50.250 C 131.561 49.371,131.648 49.217,132.123 48.980 C 133.337 48.374,133.719 47.650,134.002 45.417 C 134.107 44.592,134.348 43.162,134.537 42.240 C 134.983 40.075,134.889 39.553,133.853 38.436 C 131.047 35.408,131.094 33.000,133.959 33.000 C 135.559 33.000,135.906 32.467,136.255 29.470 C 136.626 26.294,136.970 23.656,137.252 21.833 C 137.387 20.962,137.498 19.907,137.499 19.487 C 137.501 17.996,138.793 17.434,140.833 18.037 M105.466 24.714 C 104.876 24.947,104.716 25.383,104.413 27.583 C 104.274 28.592,104.093 29.642,104.011 29.917 C 103.929 30.192,103.738 31.467,103.586 32.750 C 103.434 34.033,103.159 36.021,102.974 37.167 C 102.788 38.313,102.596 39.533,102.546 39.879 C 102.104 42.932,110.626 40.402,112.280 36.989 C 114.384 32.646,113.820 28.006,110.953 26.061 C 110.566 25.799,110.212 25.539,110.167 25.483 C 109.722 24.942,106.303 24.383,105.466 24.714 M369.594 27.944 C 371.989 29.117,373.000 31.247,373.000 35.122 C 373.000 38.129,372.667 41.032,372.158 42.467 C 371.888 43.228,371.667 43.979,371.667 44.136 C 371.667 44.293,371.517 44.683,371.335 45.003 C 371.152 45.322,370.807 45.953,370.567 46.405 C 369.108 49.152,366.000 49.978,363.704 48.226 C 362.919 47.627,362.741 47.861,362.416 49.917 C 361.775 53.978,361.744 54.648,362.138 55.868 C 362.337 56.483,362.500 57.086,362.500 57.208 C 362.500 57.330,362.878 57.801,363.340 58.256 L 364.180 59.083 365.895 59.083 C 367.488 59.083,367.650 59.052,368.180 58.647 C 371.075 56.433,373.368 52.513,373.770 49.092 C 373.961 47.469,375.718 47.080,376.049 48.587 C 376.285 49.657,376.096 54.497,375.795 55.086 C 375.656 55.360,375.366 56.108,375.151 56.750 C 374.781 57.856,373.812 59.794,373.313 60.426 C 370.243 64.314,366.325 65.182,362.707 62.777 C 361.697 62.105,361.165 61.555,359.982 59.958 C 359.582 59.419,358.532 59.309,358.152 59.768 C 357.198 60.917,353.939 61.293,352.382 60.434 C 351.040 59.693,350.265 58.365,349.910 56.198 C 349.482 53.587,349.436 51.895,349.730 49.663 C 350.114 46.757,350.161 44.205,349.835 44.002 C 349.485 43.784,349.384 43.940,349.075 45.168 C 348.925 45.763,348.629 46.553,348.415 46.923 C 348.202 47.293,347.936 48.080,347.823 48.673 C 347.710 49.265,347.444 50.325,347.232 51.029 C 347.020 51.732,346.770 52.894,346.676 53.612 C 346.582 54.330,346.353 55.742,346.167 56.750 C 345.981 57.758,345.782 59.333,345.725 60.250 C 345.607 62.140,345.572 62.212,344.527 62.674 C 343.247 63.241,341.541 62.616,341.106 61.422 C 340.415 59.528,340.246 56.192,340.503 49.557 C 340.747 43.268,340.626 41.926,339.996 43.917 C 339.880 44.283,339.618 44.783,339.415 45.028 C 339.211 45.273,338.914 45.985,338.755 46.611 C 338.595 47.238,338.332 48.087,338.169 48.500 C 338.006 48.913,337.791 49.625,337.690 50.083 C 337.589 50.542,337.287 51.892,337.019 53.083 C 336.751 54.275,336.441 56.262,336.331 57.500 C 336.124 59.822,336.011 60.167,335.212 60.909 C 334.248 61.802,332.472 61.238,331.302 59.667 C 330.891 59.114,330.744 58.588,330.163 55.575 C 329.956 54.502,329.992 52.670,330.311 48.167 C 330.417 46.654,330.575 44.404,330.661 43.167 C 330.746 41.929,330.921 40.617,331.048 40.250 C 331.176 39.883,331.374 38.983,331.488 38.250 C 331.814 36.154,332.170 34.323,332.429 33.417 C 333.322 30.284,333.375 30.147,333.804 29.867 C 334.712 29.272,336.557 29.728,337.250 30.717 C 337.623 31.250,337.559 32.776,337.084 34.698 C 336.855 35.623,336.514 37.431,336.326 38.715 C 336.139 39.999,335.907 41.195,335.812 41.373 C 335.423 42.100,335.437 45.647,335.827 45.230 C 335.903 45.149,336.085 44.543,336.233 43.882 C 336.380 43.221,336.677 42.420,336.893 42.102 C 337.109 41.785,337.371 41.088,337.477 40.554 C 337.582 40.020,337.826 39.325,338.019 39.008 C 338.211 38.692,338.477 38.017,338.610 37.508 C 338.742 37.000,338.995 36.338,339.171 36.038 C 339.348 35.739,339.617 35.064,339.770 34.538 C 340.810 30.959,342.496 30.175,345.149 32.035 C 345.946 32.594,346.117 33.348,345.898 35.319 C 345.311 40.577,345.210 43.382,345.575 44.255 C 345.938 45.125,346.079 44.978,346.492 43.292 C 346.700 42.444,347.014 41.467,347.190 41.122 C 347.366 40.777,347.583 40.106,347.673 39.632 C 347.763 39.157,348.060 38.311,348.333 37.752 C 348.605 37.192,348.879 36.475,348.942 36.159 C 349.005 35.842,349.268 35.133,349.528 34.583 C 349.787 34.033,350.000 33.493,350.000 33.383 C 350.000 33.273,350.267 32.560,350.593 31.800 C 350.918 31.039,351.306 30.133,351.453 29.787 C 352.723 26.807,358.235 28.780,357.486 31.946 C 357.404 32.297,357.181 33.596,356.992 34.833 C 356.804 36.071,356.475 37.833,356.262 38.750 C 356.048 39.667,355.745 41.167,355.587 42.083 C 355.429 43.000,355.199 44.125,355.075 44.583 C 354.285 47.518,354.060 54.220,354.708 55.506 C 355.172 56.426,355.764 56.740,356.754 56.591 C 357.998 56.405,358.166 55.913,358.170 52.449 C 358.171 50.700,358.260 49.161,358.398 48.500 C 358.521 47.904,358.754 46.517,358.913 45.417 C 359.073 44.317,359.347 42.854,359.522 42.167 C 359.697 41.479,359.996 40.204,360.187 39.333 C 360.378 38.462,360.637 37.563,360.763 37.333 C 360.890 37.104,361.149 36.438,361.339 35.852 C 361.530 35.267,361.869 34.518,362.093 34.189 C 362.317 33.859,362.500 33.501,362.500 33.394 C 362.500 33.005,364.200 30.320,364.966 29.500 C 366.700 27.642,368.051 27.188,369.594 27.944 M320.388 29.067 C 320.807 29.376,321.095 29.417,322.889 29.421 C 325.554 29.427,326.102 29.602,327.342 30.842 C 327.887 31.387,328.333 31.913,328.333 32.009 C 328.333 32.106,328.552 32.626,328.819 33.164 C 329.667 34.873,329.750 35.602,329.750 41.333 L 329.750 46.583 329.298 47.500 C 329.050 48.004,328.722 49.092,328.570 49.917 C 328.236 51.726,327.223 54.858,326.503 56.305 C 323.497 62.343,317.712 63.115,314.095 57.960 C 313.661 57.342,313.245 56.799,313.171 56.753 C 313.011 56.654,311.500 58.171,311.500 58.432 C 311.500 58.531,311.256 58.841,310.958 59.118 C 310.660 59.396,310.295 59.765,310.147 59.937 C 308.704 61.614,306.722 62.397,303.917 62.398 L 301.583 62.398 300.167 61.722 C 298.027 60.700,296.062 58.739,295.406 56.970 C 295.260 56.574,295.040 56.063,294.918 55.833 C 293.308 52.801,294.071 42.250,296.231 37.667 C 296.469 37.162,296.664 36.668,296.665 36.567 C 296.666 36.466,296.882 36.086,297.146 35.722 C 297.409 35.358,297.678 34.893,297.743 34.689 C 297.945 34.053,299.666 32.066,300.694 31.282 C 303.615 29.054,307.403 29.608,309.593 32.583 C 311.148 34.696,310.635 40.968,308.761 42.752 C 307.724 43.740,307.085 44.071,306.219 44.071 C 304.385 44.071,303.133 41.864,304.050 40.249 C 305.118 38.367,305.876 34.930,305.379 34.216 C 304.732 33.285,303.030 34.120,302.190 35.780 C 301.997 36.164,301.776 36.516,301.699 36.563 C 301.623 36.611,301.425 37.084,301.259 37.616 C 301.094 38.148,300.882 38.732,300.788 38.913 C 299.565 41.269,298.510 51.995,299.226 54.789 C 300.275 58.885,303.368 59.676,306.672 56.694 C 308.172 55.340,309.764 52.871,310.282 51.097 C 310.417 50.631,310.621 50.100,310.734 49.917 C 311.061 49.385,311.436 47.660,312.001 44.083 C 312.290 42.250,312.666 40.188,312.836 39.500 C 313.337 37.474,313.999 35.325,314.239 34.941 C 314.362 34.744,314.555 34.283,314.669 33.917 C 314.782 33.550,315.038 33.025,315.238 32.750 C 315.438 32.475,315.815 31.880,316.075 31.429 C 317.469 29.011,319.102 28.116,320.388 29.067 M209.414 30.346 C 212.498 31.992,213.124 36.704,211.315 44.653 C 210.801 46.912,208.840 49.584,207.404 49.983 C 206.176 50.324,203.835 50.068,203.301 49.534 C 202.170 48.403,201.428 55.920,202.463 58.021 C 202.953 59.016,204.822 59.937,205.833 59.682 C 208.055 59.122,209.175 58.284,210.716 56.031 C 211.355 55.097,211.425 54.836,211.577 52.833 C 211.956 47.839,215.252 44.946,217.066 48.016 C 217.514 48.775,217.260 50.868,216.593 51.917 C 216.196 52.539,215.466 54.914,215.481 55.529 C 215.570 59.056,221.095 59.421,223.173 56.037 C 224.642 53.645,224.076 48.652,222.109 46.646 C 221.895 46.428,221.648 46.118,221.561 45.957 C 221.317 45.507,218.823 43.483,218.177 43.211 C 217.862 43.078,217.338 42.789,217.013 42.568 C 216.688 42.347,216.294 42.167,216.136 42.167 C 214.396 42.167,213.243 38.587,214.481 37.024 C 214.782 36.644,215.083 36.333,215.149 36.333 C 215.216 36.333,215.424 36.190,215.612 36.015 C 215.983 35.669,217.219 35.000,217.486 35.000 C 217.577 35.000,217.927 34.814,218.262 34.586 C 218.598 34.358,219.124 34.102,219.432 34.017 C 219.739 33.932,220.215 33.703,220.490 33.507 C 220.764 33.312,221.385 33.036,221.869 32.893 C 222.354 32.751,222.862 32.537,223.000 32.417 C 223.137 32.298,223.737 32.043,224.333 31.852 C 224.929 31.660,225.947 31.318,226.594 31.091 C 231.058 29.530,231.016 35.363,226.547 37.643 C 226.167 37.837,225.807 38.075,225.747 38.172 C 225.678 38.283,225.199 38.112,224.444 37.706 C 222.887 36.868,222.523 36.937,219.469 38.649 L 218.522 39.180 218.742 39.715 C 218.863 40.009,219.193 40.400,219.475 40.583 C 219.757 40.767,220.334 41.142,220.758 41.417 C 221.181 41.692,221.674 42.000,221.853 42.102 C 222.829 42.656,225.561 45.974,226.204 47.387 C 226.364 47.737,226.643 48.213,226.826 48.445 C 227.009 48.677,227.205 49.141,227.264 49.475 C 227.322 49.810,227.549 50.736,227.768 51.533 C 228.316 53.524,227.932 57.616,227.065 59.031 C 224.322 63.509,218.833 63.915,214.792 59.939 L 214.307 59.462 213.718 59.772 C 213.393 59.943,213.005 60.269,212.856 60.496 C 209.506 65.572,203.132 65.527,200.140 60.407 C 199.340 59.038,198.498 58.958,197.833 60.188 C 197.243 61.279,196.439 62.201,195.755 62.569 C 195.431 62.743,195.167 62.948,195.167 63.024 C 195.167 63.926,189.687 63.968,188.917 63.072 C 188.825 62.965,188.490 62.736,188.173 62.564 C 186.364 61.580,184.496 58.633,184.065 56.083 C 183.539 52.968,183.889 46.616,184.680 44.945 C 184.947 44.380,185.167 43.729,185.169 43.500 C 185.172 42.747,186.258 39.447,187.057 37.760 C 187.301 37.245,187.500 36.785,187.500 36.737 C 187.500 36.466,189.296 33.935,190.015 33.191 C 192.536 30.586,195.649 31.088,197.099 34.333 L 197.583 35.417 197.580 39.500 C 197.576 43.466,197.563 43.626,197.121 45.076 C 196.871 45.897,196.662 46.722,196.657 46.909 C 196.651 47.097,196.468 47.587,196.249 48.000 C 196.030 48.413,195.768 48.938,195.666 49.167 C 194.774 51.173,191.776 52.330,189.917 51.384 C 187.991 50.405,187.676 50.744,187.544 53.940 C 187.446 56.339,187.658 57.175,188.657 58.332 L 189.305 59.082 190.944 59.082 C 192.955 59.084,193.342 58.982,194.122 58.246 C 194.460 57.927,194.797 57.667,194.871 57.667 C 195.057 57.667,196.667 55.180,196.667 54.892 C 196.667 54.764,196.857 54.193,197.090 53.622 C 197.338 53.013,197.646 51.679,197.835 50.398 C 198.012 49.197,198.225 48.034,198.308 47.815 C 198.391 47.596,198.514 46.568,198.582 45.530 C 198.704 43.646,198.706 43.642,199.352 42.895 C 199.709 42.483,200.000 42.039,200.000 41.909 C 200.000 41.584,201.618 36.678,201.804 36.441 C 201.886 36.336,202.075 35.883,202.224 35.435 C 202.373 34.987,202.667 34.387,202.876 34.102 C 203.085 33.817,203.358 33.385,203.481 33.142 C 204.772 30.599,207.488 29.319,209.414 30.346 M278.475 32.042 C 278.266 32.340,278.010 32.671,277.907 32.777 C 277.706 32.985,277.532 33.420,277.117 34.750 C 276.974 35.208,276.740 35.902,276.596 36.291 C 274.529 41.900,274.406 45.686,276.309 45.173 C 276.689 45.071,277.000 44.929,277.000 44.858 C 277.000 44.787,277.300 44.232,277.667 43.624 C 278.033 43.016,278.333 42.377,278.333 42.205 C 278.333 42.032,278.551 41.222,278.818 40.404 C 280.137 36.356,279.878 30.046,278.475 32.042 M367.547 31.877 C 367.461 31.990,367.218 32.494,367.008 32.996 C 366.797 33.498,366.526 34.060,366.404 34.246 C 366.283 34.432,366.076 34.997,365.944 35.503 C 365.813 36.009,365.514 36.984,365.282 37.670 C 364.825 39.014,364.225 41.377,363.979 42.801 C 363.424 46.004,366.189 46.044,367.176 42.848 C 367.358 42.258,367.569 41.695,367.644 41.596 C 368.170 40.909,369.062 33.933,368.772 32.777 C 368.632 32.222,367.768 31.586,367.547 31.877 M323.667 32.670 C 323.087 32.804,321.667 34.175,321.667 34.600 C 321.667 34.706,321.562 34.879,321.435 34.985 C 321.142 35.228,319.608 38.361,319.347 39.250 C 319.239 39.617,318.969 40.517,318.747 41.250 C 318.525 41.983,318.229 43.103,318.088 43.738 C 317.803 45.021,317.524 45.432,316.830 45.584 C 315.228 45.936,315.256 53.462,316.869 55.750 C 318.232 57.683,321.040 56.949,322.379 54.308 C 322.864 53.353,323.840 50.675,324.001 49.861 C 324.085 49.433,324.316 48.671,324.513 48.167 C 324.711 47.663,324.937 46.687,325.016 45.999 C 325.095 45.311,325.315 44.148,325.505 43.415 C 326.129 41.005,326.337 34.607,325.821 33.644 C 325.666 33.353,324.517 32.481,324.336 32.517 C 324.289 32.526,323.987 32.595,323.667 32.670 M207.143 33.698 C 206.700 34.496,206.123 35.956,205.806 37.083 C 205.625 37.725,205.343 38.554,205.179 38.925 C 205.016 39.296,204.752 40.181,204.594 40.892 C 204.436 41.603,204.165 42.505,203.991 42.897 C 203.818 43.289,203.627 44.033,203.566 44.550 C 203.194 47.713,205.897 47.065,206.847 43.762 C 207.034 43.114,207.262 42.446,207.354 42.277 C 207.893 41.289,208.381 35.405,208.016 34.297 C 207.729 33.428,207.413 33.211,207.143 33.698 M125.241 34.625 C 125.107 34.969,124.784 35.700,124.522 36.250 C 123.468 38.461,121.972 44.368,122.218 45.348 C 122.694 47.245,124.338 46.570,125.327 44.071 C 126.337 41.517,127.047 35.355,126.438 34.426 C 126.023 33.792,125.532 33.874,125.241 34.625 M175.924 34.455 C 175.533 34.554,174.000 35.820,174.000 36.044 C 174.000 36.131,173.778 36.530,173.507 36.932 C 173.236 37.334,172.903 38.020,172.767 38.456 C 172.632 38.893,172.330 39.700,172.098 40.250 C 171.865 40.800,171.671 41.438,171.667 41.667 C 171.662 41.896,171.468 42.533,171.235 43.083 C 170.786 44.143,169.836 49.927,169.834 51.615 C 169.830 55.038,171.892 57.577,173.516 56.147 C 173.736 55.954,174.090 55.680,174.301 55.539 C 174.513 55.398,174.829 55.002,175.004 54.659 C 175.179 54.315,175.431 53.926,175.564 53.793 C 175.955 53.402,177.132 50.820,177.331 49.917 C 177.432 49.458,177.662 48.662,177.843 48.148 C 178.588 46.031,178.704 43.260,178.081 42.500 C 177.530 41.828,177.507 41.579,177.846 39.899 C 178.346 37.415,178.310 35.973,177.730 35.199 C 177.056 34.301,176.855 34.218,175.924 34.455 M192.421 35.708 C 192.383 35.823,192.154 36.479,191.912 37.167 C 191.146 39.340,190.833 40.354,190.833 40.661 C 190.833 40.825,190.648 41.365,190.421 41.860 C 190.018 42.741,189.747 44.066,189.555 46.099 C 189.413 47.591,189.979 48.104,191.204 47.592 C 191.664 47.400,191.839 47.187,192.066 46.550 C 192.222 46.110,192.450 45.525,192.572 45.250 C 192.951 44.398,193.157 43.453,193.336 41.736 C 193.907 36.276,193.915 36.608,193.203 35.792 C 192.906 35.451,192.519 35.410,192.421 35.708 M139.001 42.999 C 138.892 43.201,138.661 44.128,138.486 45.058 C 138.311 45.989,138.059 47.281,137.926 47.930 C 137.793 48.580,137.601 50.225,137.500 51.586 C 137.398 52.948,137.288 54.105,137.256 54.157 C 137.138 54.348,136.524 59.960,136.421 61.784 C 136.261 64.642,136.559 65.394,137.701 65.016 C 140.988 63.928,142.561 50.436,140.103 44.408 C 139.394 42.667,139.266 42.504,139.001 42.999 " stroke="none" fill="#fbfbfc" fill-rule="evenodd"></path></g></svg>